<?xml version="1.0" encoding="UTF-8" standalone="no"?>
<!-- Created with Inkscape (http://www.inkscape.org/) -->
<svg
   xmlns:dc="http://purl.org/dc/elements/1.1/"
   xmlns:cc="http://creativecommons.org/ns#"
   xmlns:rdf="http://www.w3.org/1999/02/22-rdf-syntax-ns#"
   xmlns:svg="http://www.w3.org/2000/svg"
   xmlns="http://www.w3.org/2000/svg"
   version="1.1"
   width="64"
   height="64"
   id="svg3170">
  <defs
     id="defs3172">
    <linearGradient
       x1="535.62891"
       y1="998.13867"
       x2="535.62891"
       y2="998.13867"
       id="rect3368-4-8_9_"
       gradientUnits="userSpaceOnUse"
       gradientTransform="matrix(0.17812171,0,0,-0.17812171,-42.502568,212.5057)">
      <stop
         id="stop144"
         style="stop-color:#cccccc;stop-opacity:1"
         offset="0" />
      <stop
         id="stop146"
         style="stop-color:#e6e6e6;stop-opacity:1"
         offset="0.4885" />
      <stop
         id="stop148"
         style="stop-color:#cccccc;stop-opacity:1"
         offset="1" />
    </linearGradient>
  </defs>
  <metadata
     id="metadata3175">
    <rdf:RDF>
      <cc:Work
         rdf:about="">
        <dc:format>image/svg+xml</dc:format>
        <dc:type
           rdf:resource="http://purl.org/dc/dcmitype/StillImage" />
        <dc:title></dc:title>
      </cc:Work>
    </rdf:RDF>
  </metadata>
  <g
     id="layer1">
    <path
       d="M 49.091893,20.335697 H 41.80155 c -0.21624,0 -0.829156,0.515841 -1.608795,4.088428 -0.953664,4.371107 -3.086494,17.419769 -5.632387,17.419769 h 7.495184 c 3.024506,-0.351078 5.426478,-21.507306 7.036341,-21.508197 l 0,0 z"
       id="rect3368-4-9-4_1_"
       style="fill:#ecf0f1" />
    <path
       d="m 20.272869,41.843894 c 0.06003,-1.78e-4 0.118807,-0.01247 0.177765,-0.01353 -0.0773,0.02173 -0.163159,0.01942 -0.241354,0.0027 -0.03581,-0.0078 -0.07071,-0.01853 -0.10527,-0.03153 -0.03598,-0.01389 -0.07089,-0.02992 -0.105092,-0.04791 -0.03562,-0.01906 -0.07054,-0.04061 -0.104558,-0.06341 -0.03598,-0.02476 -0.07018,-0.05148 -0.103845,-0.07909 -0.03562,-0.0301 -0.06982,-0.06181 -0.102954,-0.09423 -0.03544,-0.03491 -0.07,-0.07178 -0.102776,-0.109189 -0.03527,-0.04008 -0.06982,-0.0814 -0.102242,-0.12326 -0.03509,-0.04489 -0.06893,-0.0912 -0.101707,-0.137331 -0.03474,-0.05005 -0.06875,-0.100105 -0.101529,-0.151226 -0.0342,-0.05397 -0.06804,-0.108654 -0.100461,-0.164228 -0.03438,-0.05842 -0.06787,-0.117561 -0.100283,-0.177231 -0.03384,-0.06252 -0.06733,-0.125576 -0.09975,-0.189166 -0.03402,-0.06662 -0.0668,-0.133769 -0.09939,-0.201634 -0.03348,-0.07036 -0.06608,-0.141606 -0.0985,-0.212855 -0.03348,-0.07446 -0.06591,-0.148909 -0.09779,-0.223899 -0.03331,-0.07802 -0.06591,-0.156212 -0.09779,-0.234586 -0.03331,-0.0814 -0.06537,-0.163159 -0.09708,-0.245273 -0.03295,-0.08496 -0.06484,-0.169751 -0.09654,-0.255249 -0.03278,-0.08781 -0.0643,-0.176162 -0.09583,-0.264155 -0.0326,-0.09138 -0.06412,-0.182218 -0.09547,-0.273773 -0.03206,-0.09405 -0.06377,-0.188452 -0.09494,-0.282679 -0.03189,-0.09672 -0.06306,-0.193796 -0.09369,-0.29105 -0.03189,-0.09957 -0.06306,-0.198784 -0.09387,-0.298889 -0.03153,-0.101885 -0.06234,-0.204127 -0.09316,-0.306369 -0.03117,-0.104558 -0.06216,-0.208937 -0.09262,-0.313495 -0.03117,-0.106872 -0.06199,-0.213389 -0.09227,-0.320262 -0.03082,-0.108832 -0.06181,-0.218021 -0.09155,-0.326675 -0.03064,-0.110792 -0.06127,-0.221584 -0.09102,-0.332554 -0.03046,-0.112573 -0.06056,-0.225502 -0.09049,-0.338075 -0.02992,-0.114176 -0.06021,-0.228708 -0.08977,-0.343062 -0.02992,-0.115957 -0.06003,-0.232093 -0.08959,-0.34805 -0.02992,-0.117204 -0.05949,-0.234765 -0.08871,-0.352325 -0.02975,-0.118807 -0.05914,-0.237436 -0.08817,-0.356243 -0.02939,-0.120054 -0.05878,-0.240108 -0.08781,-0.359984 -0.02921,-0.120767 -0.05825,-0.241533 -0.0871,-0.363012 -0.02903,-0.121836 -0.05771,-0.243493 -0.08603,-0.365506 -0.02903,-0.122548 -0.05771,-0.245451 -0.08568,-0.367999 -0.02868,-0.123082 -0.057,-0.246699 -0.08532,-0.369959 -0.02832,-0.123439 -0.05682,-0.247589 -0.08514,-0.371384 -0.02815,-0.123973 -0.05629,-0.24848 -0.08425,-0.372809 -0.02796,-0.124329 -0.05593,-0.248657 -0.0839,-0.373165 -0.02761,-0.124507 -0.05557,-0.249014 -0.08265,-0.373877 -0.02743,-0.124329 -0.05504,-0.248836 -0.08247,-0.3737 -0.02743,-0.124151 -0.05469,-0.248657 -0.08194,-0.373164 -0.02672,-0.123973 -0.05379,-0.248302 -0.0814,-0.372275 -0.02689,-0.123616 -0.05379,-0.247589 -0.08069,-0.370849 -0.02654,-0.123083 -0.05379,-0.246343 -0.08033,-0.369246 -0.02636,-0.122549 -0.05344,-0.244918 -0.07944,-0.367287 -0.02636,-0.121657 -0.05255,-0.242958 -0.07891,-0.364794 -0.02601,-0.120588 -0.05219,-0.241176 -0.0782,-0.361587 -0.02601,-0.119698 -0.05183,-0.239218 -0.07802,-0.358737 -0.02601,-0.118273 -0.05148,-0.236724 -0.07731,-0.354818 -0.02582,-0.116849 -0.05094,-0.233696 -0.07695,-0.351078 -0.02529,-0.115067 -0.05023,-0.230846 -0.07588,-0.346091 -0.02512,-0.113998 -0.04987,-0.227461 -0.07552,-0.341281 -0.02512,-0.112395 -0.04987,-0.224433 -0.07446,-0.336472 -0.02512,-0.110258 -0.0497,-0.220159 -0.07428,-0.330416 -0.0244,-0.107942 -0.0488,-0.21624 -0.07356,-0.32436 -0.02422,-0.10616 -0.0488,-0.211964 -0.07339,-0.317768 -0.02387,-0.103846 -0.04809,-0.207512 -0.07232,-0.311179 -0.02369,-0.101173 -0.04773,-0.202703 -0.0716,-0.303698 -0.02369,-0.09886 -0.04738,-0.19718 -0.07107,-0.29586 -0.02316,-0.09601 -0.04667,-0.192015 -0.07036,-0.287845 -0.02333,-0.09316 -0.04667,-0.186493 -0.07018,-0.279473 -0.02298,-0.09031 -0.04578,-0.180615 -0.06929,-0.270923 -0.02262,-0.08692 -0.04578,-0.174381 -0.06858,-0.261482 -0.02262,-0.0839 -0.0456,-0.167435 -0.06875,-0.251686 -0.02191,-0.08033 -0.04453,-0.160844 -0.06715,-0.241177 -0.02209,-0.07713 -0.04453,-0.154075 -0.0668,-0.231024 -0.02209,-0.07339 -0.04382,-0.146951 -0.06626,-0.220158 -0.02137,-0.06982 -0.04328,-0.139292 -0.06555,-0.208759 -0.02137,-0.06591 -0.04257,-0.131454 -0.06501,-0.197003 -0.02102,-0.06199 -0.04204,-0.123438 -0.06448,-0.18489 -0.02066,-0.05771 -0.04168,-0.115423 -0.06377,-0.172778 -0.0203,-0.05362 -0.04114,-0.106873 -0.06288,-0.159597 -0.02013,-0.04898 -0.04114,-0.09779 -0.0627,-0.146238 -0.0196,-0.04471 -0.04044,-0.08906 -0.06199,-0.132701 -0.01888,-0.0399 -0.0399,-0.07944 -0.06127,-0.118629 -0.01924,-0.03509 -0.03937,-0.06982 -0.06056,-0.104023 -0.01888,-0.03028 -0.03901,-0.0602 -0.05985,-0.08906 -0.01853,-0.02565 -0.0383,-0.05041 -0.05931,-0.07392 -0.01853,-0.02066 -0.03776,-0.04026 -0.0586,-0.05807 -0.01817,-0.01567 -0.03741,-0.0301 -0.05789,-0.04186 -0.01835,-0.01087 -0.03723,-0.01942 -0.05771,-0.02601 -0.01799,-0.0051 -0.0374,-0.0086 -0.05646,-0.0086 h 7.290521 c 0.216062,0 0.829335,0.515841 1.608974,4.088428 0.953485,4.37075 3.086137,17.419947 5.63203,17.419947 0,0 -7.495361,0 -7.495717,0"
       id="rect3368_1_"
       style="fill:#2980b9" />
    <path
       d="m 27.510845,20.335697 h 7.290165 c 0.21624,0 0.829335,0.515841 1.608795,4.088428 0.953665,4.371107 3.087206,17.419769 5.632388,17.419769 H 34.546831 C 31.522502,41.492816 29.120709,20.336588 27.510845,20.335697 z"
       id="rect3368-2_1_"
       style="fill:#2980b9" />
    <path
       d="m 2.0096939,32.345198 c 1.1048888,4.840458 2.3563721,9.340346 3.7369938,9.500478 h 7.4937583"
       id="rect3368-2-7_2_"
       style="fill:#2980b9" />
    <path
       d="m 20.50603,20.335697 h -7.290521 c -0.216062,0 -0.828978,0.515841 -1.608617,4.088428 -0.953664,4.371107 -3.0863153,17.419769 -5.6323868,17.419769 h 7.4955398 c 3.02415,-0.351078 5.425766,-21.507306 7.035985,-21.508197 l 0,0 z"
       id="rect3368-4-9_3_"
       style="fill:#29a7e8" />
    <path
       d="M 52.904589,34.715464"
       id="rect3368-4-8_4_"
       style="fill:url(#rect3368-4-8_9_)" />
    <path
       d="m 48.830945,41.843894 h 7.495362 c 3.024329,-0.351078 4.980284,-12.221286 6.027639,-15.587609"
       id="rect3368-4-8_1_"
       style="fill:#f1c40f" />
    <path
       d="m 41.800837,20.335697 h 7.290344 c 0.216062,0 0.829157,0.515841 1.608795,4.088428 0.953664,4.371107 3.087028,17.419769 5.632922,17.419769 H 48.837536 C 45.812317,41.492816 43.410701,20.336588 41.800837,20.335697 z"
       id="rect3368-48_1_"
       style="fill:#1abc9c" />
    <path
       d="m 34.82951,20.335697 h -7.290344 c -0.216061,0 -0.828978,0.515841 -1.608617,4.088428 -0.953664,4.371107 -3.086849,17.419769 -5.632209,17.419769 h 7.494828 c 3.024685,-0.351078 5.426478,-21.507306 7.036342,-21.508197 l 0,0 z"
       id="rect3368-4-9_2_"
       style="fill:#29a7e8" />
    <path
       d="M 20.29834,41.843894"
       id="path154"
       style="fill:#9999cc" />
    <path
       d="m 20.318824,41.842291 c 0.01959,-5.34e-4 0.03954,-0.0016 0.05878,-0.0037 l -0.03384,0.0051 h 0.135194 c 0.01122,-0.0027 0.02298,-0.0068 0.03384,-0.008 0.0023,0 0.0043,-0.0011 0.0068,-0.0014 0.02262,-0.0034 0.04489,-0.0094 0.06751,-0.01425 0.0037,-7.09e-4 0.0075,-0.0016 0.01104,-0.0021 2.599864,-0.593323 4.279374,-12.071487 5.216116,-16.844793 -1.000866,4.804299 -3.057459,16.8024 -5.495411,16.869195 z m 0.891322,-0.443701 c 0.0041,-0.0039 0.0087,-0.0078 0.01283,-0.01211 -0.0043,0.0048 -0.0089,0.0091 -0.01318,0.01354 1.79e-4,-5.34e-4 1.79e-4,-8.86e-4 3.57e-4,-0.0014 z"
       id="path156"
       style="fill:#ecf0f1" />
    <path
       d="m 5.9745052,41.842291 c 0.019418,-5.34e-4 0.039367,-0.0016 0.058778,-0.0037 l -0.034022,0.0051 h 0.1351939 c 0.011221,-0.0027 0.022978,-0.0068 0.033845,-0.008 0.0023,0 0.00425,-0.0011 0.00677,-0.0014 0.022618,-0.0034 0.044888,-0.0094 0.067508,-0.01425 0.00372,-7.09e-4 0.00748,-0.0016 0.011043,-0.0021 2.6000405,-0.593363 4.2793719,-12.071527 5.2161139,-16.844833 -1.000687,4.804299 -3.057281,16.8024 -5.4952327,16.869195 z M 6.8658261,41.39859 c 0.00407,-0.0039 0.00873,-0.0078 0.013004,-0.01211 -0.00443,0.0048 -0.00908,0.0091 -0.013358,0.01354 3.561e-4,-5.34e-4 3.561e-4,-8.86e-4 3.561e-4,-0.0014 z"
       id="path169"
       style="fill:#ecf0f1" />
  </g>
</svg>
