<?xml version="1.0" encoding="utf-8"?>
<!-- Generator: Adobe Illustrator 16.0.0, SVG Export Plug-In . SVG Version: 6.00 Build 0)  -->
<!DOCTYPE svg PUBLIC "-//W3C//DTD SVG 1.1//EN" "http://www.w3.org/Graphics/SVG/1.1/DTD/svg11.dtd">
<svg version="1.1"
	 id="svg3170" xmlns:dc="http://purl.org/dc/elements/1.1/" xmlns:cc="http://creativecommons.org/ns#" xmlns:rdf="http://www.w3.org/1999/02/22-rdf-syntax-ns#" xmlns:svg="http://www.w3.org/2000/svg"
	 xmlns="http://www.w3.org/2000/svg" xmlns:xlink="http://www.w3.org/1999/xlink" x="0px" y="0px" width="64px" height="64px"
	 viewBox="0 0 64 64" enable-background="new 0 0 64 64" xml:space="preserve">
<g id="layer1">
	<path id="rect3368_1_" fill="#2980B9" d="M29.194,49.195c0.097,0,0.191-0.02,0.287-0.023c-0.124,0.037-0.262,0.031-0.387,0.004
		c-0.059-0.012-0.114-0.029-0.169-0.047c-0.056-0.025-0.113-0.049-0.169-0.076c-0.055-0.035-0.111-0.066-0.166-0.102
		c-0.057-0.041-0.111-0.086-0.167-0.127c-0.056-0.049-0.111-0.102-0.165-0.152c-0.054-0.055-0.112-0.117-0.164-0.174
		c-0.057-0.064-0.112-0.133-0.164-0.195c-0.057-0.072-0.112-0.148-0.163-0.223c-0.054-0.078-0.11-0.16-0.162-0.24
		c-0.054-0.09-0.108-0.176-0.161-0.262c-0.055-0.096-0.108-0.191-0.161-0.285c-0.053-0.1-0.106-0.201-0.158-0.303
		c-0.056-0.107-0.106-0.213-0.161-0.322c-0.053-0.113-0.104-0.227-0.158-0.34c-0.053-0.119-0.104-0.24-0.155-0.359
		c-0.053-0.123-0.105-0.25-0.155-0.377c-0.056-0.129-0.105-0.258-0.155-0.389c-0.056-0.137-0.105-0.271-0.155-0.41
		c-0.053-0.139-0.104-0.279-0.152-0.42c-0.053-0.148-0.104-0.291-0.154-0.439c-0.051-0.15-0.103-0.301-0.151-0.451
		c-0.053-0.156-0.101-0.311-0.15-0.465c-0.053-0.158-0.101-0.318-0.149-0.479c-0.053-0.164-0.101-0.328-0.15-0.488
		c-0.049-0.17-0.1-0.336-0.149-0.504c-0.049-0.17-0.098-0.342-0.146-0.514c-0.05-0.172-0.099-0.346-0.147-0.523
		c-0.049-0.176-0.097-0.35-0.144-0.529c-0.05-0.182-0.1-0.359-0.146-0.541c-0.048-0.184-0.096-0.363-0.144-0.549
		c-0.048-0.182-0.096-0.373-0.143-0.557c-0.047-0.186-0.096-0.375-0.144-0.562c-0.044-0.189-0.093-0.379-0.139-0.568
		c-0.048-0.191-0.094-0.387-0.141-0.578c-0.045-0.191-0.094-0.387-0.139-0.578c-0.045-0.197-0.091-0.391-0.138-0.584
		c-0.047-0.197-0.093-0.396-0.136-0.59c-0.047-0.197-0.093-0.395-0.136-0.592c-0.047-0.199-0.092-0.395-0.136-0.594
		c-0.047-0.199-0.091-0.396-0.137-0.596c-0.043-0.201-0.088-0.396-0.133-0.597c-0.042-0.199-0.09-0.397-0.134-0.598
		c-0.043-0.199-0.086-0.399-0.13-0.599c-0.043-0.198-0.086-0.396-0.131-0.598c-0.044-0.196-0.087-0.396-0.13-0.593
		c-0.044-0.199-0.087-0.397-0.13-0.593c-0.042-0.197-0.086-0.395-0.127-0.592c-0.042-0.196-0.086-0.391-0.127-0.587
		c-0.043-0.194-0.083-0.387-0.125-0.583c-0.043-0.193-0.083-0.386-0.127-0.578c-0.042-0.192-0.082-0.382-0.125-0.575
		c-0.042-0.188-0.083-0.378-0.123-0.567c-0.04-0.187-0.082-0.373-0.122-0.562c-0.04-0.184-0.08-0.369-0.123-0.554
		c-0.039-0.182-0.078-0.362-0.119-0.545c-0.042-0.18-0.08-0.358-0.12-0.538c-0.04-0.176-0.08-0.352-0.119-0.528
		c-0.039-0.172-0.078-0.345-0.12-0.519c-0.037-0.169-0.078-0.339-0.116-0.508c-0.039-0.166-0.077-0.332-0.114-0.498
		c-0.039-0.162-0.078-0.323-0.117-0.485c-0.036-0.159-0.075-0.316-0.113-0.473c-0.038-0.153-0.075-0.308-0.111-0.46
		c-0.039-0.149-0.076-0.299-0.113-0.448c-0.036-0.143-0.075-0.289-0.111-0.433c-0.036-0.138-0.072-0.278-0.108-0.418
		c-0.037-0.135-0.074-0.268-0.11-0.403c-0.037-0.128-0.072-0.257-0.108-0.385c-0.036-0.123-0.072-0.247-0.108-0.369
		c-0.035-0.118-0.069-0.235-0.105-0.353c-0.033-0.112-0.068-0.223-0.102-0.334c-0.036-0.105-0.069-0.21-0.106-0.314
		c-0.034-0.1-0.066-0.199-0.104-0.296c-0.032-0.092-0.066-0.184-0.101-0.276c-0.033-0.086-0.067-0.171-0.103-0.255
		c-0.031-0.078-0.064-0.156-0.098-0.233c-0.032-0.071-0.064-0.143-0.099-0.213c-0.03-0.064-0.065-0.126-0.1-0.189
		c-0.029-0.056-0.061-0.111-0.096-0.166c-0.031-0.048-0.062-0.096-0.096-0.143c-0.029-0.042-0.06-0.08-0.093-0.119
		c-0.031-0.032-0.062-0.063-0.094-0.092c-0.03-0.026-0.062-0.048-0.095-0.066c-0.029-0.018-0.058-0.032-0.091-0.042
		c-0.027-0.008-0.061-0.013-0.09-0.013h11.659c0.345,0,1.325,0.825,2.574,6.538c1.525,6.99,4.936,27.856,9.006,27.856H29.2"/>
	<path id="rect3368-2_1_" fill="#2980B9" d="M40.771,14.801h11.657c0.347,0,1.326,0.825,2.572,6.538
		c1.525,6.99,4.937,27.856,9.007,27.856H52.021C47.187,48.631,43.346,14.802,40.771,14.801z"/>
	<path id="rect3368-2-7_2_" fill="#2980B9" d="M-0.009,34.004c1.767,7.742,3.768,14.938,5.976,15.193h11.982"/>
	<path id="rect3368-4-9_3_" fill="#29A7E8" d="M29.569,14.801H17.912c-0.346,0-1.326,0.825-2.572,6.538
		c-1.526,6.99-4.937,27.856-9.008,27.856h11.987C23.154,48.631,26.994,14.802,29.569,14.801L29.569,14.801z"/>
	<path id="rect3368-4-9_2_" fill="#29A7E8" d="M52.473,14.801H40.815c-0.344,0-1.328,0.825-2.572,6.538
		c-1.525,6.99-4.936,27.856-9.007,27.856h11.986C46.059,48.631,49.9,14.802,52.473,14.801L52.473,14.801z"/>
	<path id="path154" fill="#9999CC" d="M29.236,49.195"/>
	<path id="path156" fill="#ECF0F1" d="M30.695,48.482c0.007-0.008,0.014-0.014,0.02-0.018c-0.006,0.004-0.015,0.012-0.02,0.021
		C30.695,48.484,30.695,48.482,30.695,48.482L30.695,48.482z"/>
	<path id="path169" fill="#ECF0F1" d="M7.756,48.482c0.008-0.008,0.014-0.014,0.021-0.018c-0.007,0.004-0.015,0.012-0.021,0.021
		C7.756,48.484,7.756,48.482,7.756,48.482L7.756,48.482z"/>
</g>
</svg>
