<?xml version="1.0" encoding="utf-8"?>
<!-- Generator: Adobe Illustrator 16.0.0, SVG Export Plug-In . SVG Version: 6.00 Build 0)  -->
<!DOCTYPE svg PUBLIC "-//W3C//DTD SVG 1.1//EN" "http://www.w3.org/Graphics/SVG/1.1/DTD/svg11.dtd">
<svg version="1.1"
	 id="Layer_1" xmlns:dc="http://purl.org/dc/elements/1.1/" xmlns:osb="http://www.openswatchbook.org/uri/2009/osb" xmlns:svg="http://www.w3.org/2000/svg" xmlns:rdf="http://www.w3.org/1999/02/22-rdf-syntax-ns#" xmlns:cc="http://creativecommons.org/ns#" xmlns:inkscape="http://www.inkscape.org/namespaces/inkscape" xmlns:sodipodi="http://sodipodi.sourceforge.net/DTD/sodipodi-0.dtd" inkscape:version="0.48.2 r9819" sodipodi:docname="ribbon2.svg"
	 xmlns="http://www.w3.org/2000/svg" xmlns:xlink="http://www.w3.org/1999/xlink" x="0px" y="0px" width="1000px" height="1000px"
	 viewBox="0 0 1000 1000" enable-background="new 0 0 1000 1000" xml:space="preserve">
<defs>
	
	
		<inkscape:perspective  inkscape:vp_x="0 : 500 : 1" sodipodi:type="inkscape:persp3d" id="perspective4504" inkscape:vp_y="0 : 1000 : 0" inkscape:vp_z="1000 : 500 : 1" inkscape:persp3d-origin="500 : 333.33333 : 1">
		</inkscape:perspective>
</defs>
<sodipodi:namedview  borderopacity="1" objecttolerance="10" inkscape:zoom="0.87657083" showguides="true" inkscape:cx="548.66843" gridtolerance="10" guidetolerance="10" showgrid="false" inkscape:cy="567.95756" pagecolor="#ffffff" bordercolor="#666666" id="namedview383" inkscape:current-layer="Layer_1" inkscape:guide-bbox="true" inkscape:pageopacity="0" inkscape:pageshadow="2" inkscape:window-maximized="0" inkscape:window-width="1272" inkscape:window-height="853" inkscape:window-x="152" inkscape:window-y="71">
	<sodipodi:guide  position="-46.388378,604.31983" orientation="1,0" id="guide4139"></sodipodi:guide>
	<sodipodi:guide  position="524.36188,972.94892" orientation="0,1" id="guide4628"></sodipodi:guide>
</sodipodi:namedview>
<linearGradient id="rect3368-4-9-4_3_" gradientUnits="userSpaceOnUse" x1="519.9668" y1="1168.0508" x2="519.9668" y2="1389.1106" gradientTransform="matrix(1 0 0 -1 76.5 1612)">
	<stop  offset="0.061" style="stop-color:#BFBFBF"/>
	<stop  offset="0.1488" style="stop-color:#D1D3D4"/>
	<stop  offset="0.2497" style="stop-color:#E3E4E4"/>
	<stop  offset="0.4885" style="stop-color:#E6E6E6"/>
	<stop  offset="0.7416" style="stop-color:#E3E4E4"/>
	<stop  offset="0.9282" style="stop-color:#BFBFBF"/>
</linearGradient>
<path id="rect3368-4-9-4" inkscape:connector-curvature="0" sodipodi:nodetypes="ccsccc" fill="url(#rect3368-4-9-4_3_)" d="
	M672.314,221.239H596.21c-2.256,0-8.656,5.384-16.795,42.681c-9.955,45.63-32.221,181.847-58.798,181.847h78.245
	C630.436,442.102,655.509,221.248,672.314,221.239L672.314,221.239z"/>
<linearGradient id="rect3368_3_" gradientUnits="userSpaceOnUse" x1="191.8965" y1="-730.8188" x2="191.8964" y2="-508.7201" gradientTransform="matrix(1 0 0 1 182 954)">
	<stop  offset="0" style="stop-color:#00577F"/>
	<stop  offset="0.409" style="stop-color:#2980B9"/>
	<stop  offset="0.5898" style="stop-color:#2980B9"/>
	<stop  offset="1" style="stop-color:#00577F"/>
</linearGradient>
<path id="rect3368" inkscape:connector-curvature="0" sodipodi:nodetypes="ccsccc" fill="url(#rect3368_3_)" d="M371.469,445.766
	c0.628-0.002,1.241-0.131,1.855-0.142c-0.809,0.229-1.703,0.204-2.521,0.026c-0.374-0.082-0.737-0.192-1.1-0.327
	c-0.375-0.146-0.741-0.312-1.095-0.498c-0.375-0.2-0.738-0.423-1.094-0.665c-0.375-0.257-0.73-0.535-1.084-0.827
	c-0.372-0.313-0.729-0.643-1.073-0.985c-0.372-0.362-0.729-0.748-1.073-1.139c-0.369-0.419-0.729-0.85-1.068-1.29
	c-0.366-0.469-0.72-0.948-1.062-1.435c-0.364-0.521-0.72-1.044-1.062-1.577c-0.357-0.564-0.711-1.136-1.051-1.714
	c-0.359-0.61-0.707-1.229-1.046-1.853c-0.356-0.648-0.703-1.312-1.041-1.976c-0.354-0.696-0.698-1.396-1.035-2.104
	c-0.352-0.732-0.689-1.478-1.028-2.222c-0.35-0.776-0.688-1.556-1.021-2.338c-0.347-0.814-0.688-1.631-1.021-2.451
	c-0.346-0.85-0.683-1.703-1.014-2.559c-0.342-0.885-0.677-1.773-1.007-2.663c-0.34-0.918-0.673-1.839-1.001-2.762
	c-0.338-0.951-0.669-1.903-0.996-2.858c-0.335-0.981-0.665-1.964-0.99-2.949c-0.333-1.01-0.66-2.022-0.979-3.036
	c-0.331-1.039-0.657-2.078-0.979-3.12c-0.329-1.064-0.648-2.13-0.973-3.198c-0.326-1.09-0.648-2.181-0.967-3.273
	c-0.325-1.113-0.646-2.228-0.961-3.343c-0.322-1.136-0.646-2.272-0.956-3.41c-0.32-1.156-0.642-2.313-0.95-3.471
	c-0.318-1.175-0.632-2.352-0.944-3.529c-0.312-1.193-0.628-2.388-0.938-3.583c-0.313-1.21-0.624-2.421-0.937-3.632
	c-0.312-1.225-0.62-2.451-0.926-3.678c-0.31-1.239-0.616-2.479-0.921-3.719c-0.308-1.251-0.612-2.503-0.915-3.756
	c-0.305-1.262-0.608-2.525-0.909-3.789c-0.303-1.272-0.604-2.544-0.898-3.817c-0.306-1.28-0.604-2.561-0.897-3.842
	c-0.298-1.287-0.595-2.574-0.891-3.861c-0.299-1.292-0.597-2.585-0.89-3.878c-0.294-1.296-0.587-2.593-0.879-3.89
	c-0.292-1.299-0.583-2.598-0.873-3.897c-0.29-1.3-0.579-2.6-0.862-3.9c-0.288-1.3-0.575-2.6-0.861-3.9
	c-0.286-1.298-0.571-2.597-0.855-3.895c-0.279-1.295-0.562-2.59-0.849-3.886c-0.282-1.291-0.562-2.582-0.843-3.873
	c-0.279-1.285-0.562-2.57-0.837-3.855c-0.277-1.278-0.559-2.556-0.831-3.833c-0.275-1.269-0.549-2.539-0.824-3.808
	c-0.273-1.259-0.545-2.518-0.818-3.777c-0.271-1.248-0.541-2.496-0.812-3.744c-0.271-1.235-0.537-2.47-0.809-3.705
	c-0.268-1.221-0.529-2.441-0.801-3.662c-0.264-1.206-0.523-2.411-0.793-3.616c-0.262-1.188-0.521-2.376-0.788-3.564
	c-0.259-1.17-0.52-2.34-0.776-3.51c-0.262-1.15-0.52-2.3-0.774-3.45c-0.255-1.129-0.511-2.258-0.769-3.387
	c-0.253-1.107-0.511-2.213-0.767-3.319c-0.25-1.083-0.502-2.166-0.756-3.247c-0.248-1.058-0.498-2.115-0.749-3.171
	c-0.246-1.031-0.493-2.061-0.743-3.091c-0.241-1.002-0.484-2.005-0.732-3.006c-0.241-0.973-0.484-1.946-0.73-2.918
	c-0.239-0.942-0.479-1.884-0.724-2.825c-0.236-0.91-0.479-1.819-0.718-2.728c-0.233-0.876-0.475-1.752-0.715-2.627
	c-0.229-0.841-0.466-1.682-0.7-2.521c-0.229-0.805-0.466-1.609-0.698-2.412c-0.229-0.767-0.457-1.534-0.691-2.298
	c-0.224-0.728-0.452-1.455-0.685-2.18c-0.226-0.688-0.447-1.374-0.682-2.058c-0.22-0.646-0.439-1.29-0.674-1.932
	c-0.216-0.603-0.437-1.204-0.666-1.802c-0.213-0.558-0.432-1.114-0.654-1.667c-0.212-0.512-0.432-1.022-0.652-1.528
	c-0.207-0.465-0.421-0.928-0.646-1.385c-0.199-0.417-0.416-0.831-0.639-1.238c-0.201-0.368-0.411-0.729-0.632-1.086
	c-0.198-0.317-0.405-0.629-0.625-0.931c-0.194-0.266-0.399-0.525-0.619-0.771c-0.19-0.215-0.394-0.42-0.612-0.607
	c-0.188-0.163-0.39-0.313-0.604-0.439c-0.189-0.111-0.39-0.204-0.604-0.267c-0.188-0.058-0.392-0.09-0.592-0.09h76.105
	c2.256,0,8.656,5.384,16.796,42.679c9.954,45.628,32.219,181.849,58.796,181.849c0,0-78.247,0-78.251,0"/>
<linearGradient id="rect3368-2_3_" gradientUnits="userSpaceOnUse" x1="340.8765" y1="-507.4985" x2="340.8765" y2="-732.9526" gradientTransform="matrix(1 0 0 1 182 954)">
	<stop  offset="0" style="stop-color:#2C6B94"/>
	<stop  offset="1.000000e-08" style="stop-color:#2980B9"/>
	<stop  offset="0.5808" style="stop-color:#2980B9"/>
	<stop  offset="0.8642" style="stop-color:#2E6487"/>
</linearGradient>
<path id="rect3368-2" inkscape:connector-curvature="0" sodipodi:nodetypes="ccsccc" fill="url(#rect3368-2_3_)" d="
	M447.028,221.239h76.103c2.257,0,8.657,5.384,16.795,42.681c9.955,45.63,32.229,181.847,58.798,181.847h-78.245
	C488.906,442.102,463.833,221.248,447.028,221.239z"/>
<linearGradient id="rect3368-2-7_4_" gradientUnits="userSpaceOnUse" x1="162.939" y1="1288.0391" x2="162.939" y2="1130.9688" gradientTransform="matrix(1 0 0 -1 76.5 1612)">
	<stop  offset="0.0667" style="stop-color:#16C1FF"/>
	<stop  offset="0.1127" style="stop-color:#1CB9F8"/>
	<stop  offset="0.246" style="stop-color:#29A7E8"/>
	<stop  offset="0.3857" style="stop-color:#319CDE"/>
	<stop  offset="0.5407" style="stop-color:#3498DB"/>
	<stop  offset="0.6722" style="stop-color:#1F8BCA"/>
	<stop  offset="0.8468" style="stop-color:#087DB8"/>
	<stop  offset="0.958" style="stop-color:#0078B1"/>
</linearGradient>
<path id="rect3368-2-7_1_" inkscape:connector-curvature="0" fill="url(#rect3368-2-7_4_)" d="M180.818,346.61
	c11.536,50.529,24.601,97.501,39.014,99.174h78.228"/>
<linearGradient id="rect3368-4-9_6_" gradientUnits="userSpaceOnUse" x1="213.0552" y1="-592.3989" x2="213.055" y2="-343.2965" gradientTransform="matrix(1 0 0 1 85 795)">
	<stop  offset="0.0653" style="stop-color:#16C1FF"/>
	<stop  offset="0.1115" style="stop-color:#1CB9F8"/>
	<stop  offset="0.2451" style="stop-color:#29A7E8"/>
	<stop  offset="0.3852" style="stop-color:#319CDE"/>
	<stop  offset="0.5407" style="stop-color:#3498DB"/>
	<stop  offset="0.6722" style="stop-color:#1F8BCA"/>
	<stop  offset="0.8468" style="stop-color:#087DB8"/>
	<stop  offset="0.958" style="stop-color:#0078B1"/>
</linearGradient>
<path id="rect3368-4-9" inkscape:connector-curvature="0" sodipodi:nodetypes="ccsccc" fill="url(#rect3368-4-9_6_)" d="
	M373.902,221.239h-76.104c-2.256,0-8.656,5.384-16.795,42.681c-9.954,45.63-32.219,181.847-58.796,181.847h78.245
	C332.022,442.102,357.095,221.248,373.902,221.239L373.902,221.239z"/>
<linearGradient id="rect3368-4-8_7_" gradientUnits="userSpaceOnUse" x1="635.6162" y1="1240.6484" x2="635.6162" y2="1240.6484" gradientTransform="matrix(1 0 0 -1 76.5 1612)">
	<stop  offset="0" style="stop-color:#CCCCCC"/>
	<stop  offset="0.4885" style="stop-color:#E6E6E6"/>
	<stop  offset="1" style="stop-color:#CCCCCC"/>
</linearGradient>
<path id="rect3368-4-8_3_" inkscape:connector-curvature="0" sodipodi:nodetypes="ccsccc" fill="url(#rect3368-4-8_7_)" d="
	M712.116,371.351"/>
<linearGradient id="rect3368-4-8_8_" gradientUnits="userSpaceOnUse" x1="663.6758" y1="1168.2314" x2="663.6758" y2="1326.5009" gradientTransform="matrix(1 0 0 -1 76.5 1612)">
	<stop  offset="0" style="stop-color:#F39C12"/>
	<stop  offset="0.1397" style="stop-color:#F2AD11"/>
	<stop  offset="0.3182" style="stop-color:#F1BA10"/>
	<stop  offset="0.5474" style="stop-color:#F1C20F"/>
	<stop  offset="1" style="stop-color:#F1C40F"/>
</linearGradient>
<path id="rect3368-4-8_2_" inkscape:connector-curvature="0" sodipodi:nodetypes="ccsccc" fill="url(#rect3368-4-8_8_)" d="
	M669.59,445.768h78.245c31.573-3.666,51.991-127.582,62.924-162.722"/>
<linearGradient id="rect3368-48_3_" gradientUnits="userSpaceOnUse" x1="587.0547" y1="-602.833" x2="587.0547" y2="-340.614" gradientTransform="matrix(1 0 0 1 85 795)">
	<stop  offset="0" style="stop-color:#00E9AB"/>
	<stop  offset="0.2984" style="stop-color:#1ABC9C"/>
	<stop  offset="1" style="stop-color:#16A085"/>
</linearGradient>
<path id="rect3368-48" inkscape:connector-curvature="0" sodipodi:nodetypes="ccsccc" fill="url(#rect3368-48_3_)" d="
	M596.203,221.239h76.104c2.256,0,8.657,5.384,16.795,42.681c9.956,45.63,32.227,181.847,58.805,181.847H669.66
	C638.082,442.102,613.009,221.248,596.203,221.239z"/>
<linearGradient id="rect3368-4-9_7_" gradientUnits="userSpaceOnUse" x1="362.5825" y1="-592.3984" x2="362.5825" y2="-343.3007" gradientTransform="matrix(1 0 0 1 85 795)">
	<stop  offset="0.0667" style="stop-color:#16C1FF"/>
	<stop  offset="0.1127" style="stop-color:#1CB9F8"/>
	<stop  offset="0.246" style="stop-color:#29A7E8"/>
	<stop  offset="0.3857" style="stop-color:#319CDE"/>
	<stop  offset="0.5407" style="stop-color:#3498DB"/>
	<stop  offset="0.6722" style="stop-color:#1F8BCA"/>
	<stop  offset="0.8468" style="stop-color:#087DB8"/>
	<stop  offset="0.958" style="stop-color:#0078B1"/>
</linearGradient>
<path id="rect3368-4-9_1_" inkscape:connector-curvature="0" sodipodi:nodetypes="ccsccc" fill="url(#rect3368-4-9_7_)" d="
	M523.43,221.239h-76.104c-2.256,0-8.656,5.384-16.795,42.681c-9.954,45.63-32.225,181.847-58.796,181.847h78.238
	C481.551,442.102,506.623,221.248,523.43,221.239L523.43,221.239z"/>
<path fill="#9999CC" d="M371.735,445.766"/>
<linearGradient id="SVGID_1_" gradientUnits="userSpaceOnUse" x1="358.1309" y1="833.6104" x2="358.1309" y2="1029.0084" gradientTransform="matrix(1 0 0 -1 42.5 1294)">
	<stop  offset="0" style="stop-color:#005CBF"/>
	<stop  offset="0.2277" style="stop-color:#A0DCFF"/>
	<stop  offset="0.7868" style="stop-color:#1CB9F8"/>
	<stop  offset="0.958" style="stop-color:#0078B1"/>
</linearGradient>
<path fill="url(#SVGID_1_)" d="M371.948,445.75c0.205-0.006,0.41-0.017,0.614-0.038l-0.356,0.055h1.411
	c0.117-0.027,0.24-0.07,0.354-0.083c0.024-0.001,0.046-0.011,0.07-0.015c0.236-0.033,0.47-0.099,0.705-0.149
	c0.042-0.007,0.077-0.016,0.117-0.021c27.142-6.194,44.674-126.014,54.451-175.845C418.868,319.802,397.398,445.054,371.948,445.75z
	 M381.254,441.117c0.045-0.044,0.091-0.082,0.136-0.126c-0.046,0.05-0.093,0.092-0.139,0.141
	C381.253,441.127,381.253,441.123,381.254,441.117z"/>
<path id="rect3368-4-9-4_1_" inkscape:connector-curvature="0" sodipodi:nodetypes="ccsccc" fill="#ECF0F1" d="M590.724,533.131
	h-40.929c-1.214,0-4.655,2.896-9.032,22.953c-5.354,24.54-17.328,97.797-31.621,97.797h42.079
	C568.201,651.91,581.686,533.136,590.724,533.131L590.724,533.131z"/>
<path id="rect3368_1_" inkscape:connector-curvature="0" sodipodi:nodetypes="ccsccc" fill="#2980B9" d="M428.93,653.881
	c0.337-0.001,0.667-0.07,0.998-0.076c-0.434,0.122-0.916,0.109-1.355,0.015c-0.201-0.044-0.397-0.104-0.591-0.177
	c-0.202-0.078-0.398-0.168-0.59-0.269c-0.2-0.107-0.396-0.228-0.587-0.356c-0.202-0.139-0.394-0.289-0.583-0.444
	c-0.2-0.169-0.392-0.347-0.578-0.529c-0.199-0.196-0.393-0.403-0.577-0.613c-0.198-0.225-0.392-0.457-0.574-0.692
	c-0.197-0.252-0.387-0.512-0.571-0.771c-0.195-0.281-0.386-0.562-0.57-0.849c-0.192-0.303-0.382-0.61-0.564-0.922
	c-0.193-0.328-0.381-0.66-0.563-0.995c-0.19-0.351-0.378-0.705-0.56-1.062c-0.191-0.374-0.375-0.751-0.558-1.132
	c-0.188-0.395-0.371-0.795-0.553-1.195c-0.188-0.418-0.37-0.836-0.549-1.257c-0.187-0.438-0.37-0.877-0.549-1.317
	c-0.187-0.457-0.367-0.916-0.545-1.377c-0.185-0.477-0.364-0.953-0.542-1.433c-0.184-0.493-0.361-0.989-0.538-1.483
	c-0.183-0.513-0.36-1.023-0.536-1.537c-0.18-0.528-0.358-1.058-0.533-1.587c-0.179-0.543-0.354-1.088-0.526-1.634
	c-0.179-0.559-0.354-1.116-0.527-1.678c-0.177-0.572-0.35-1.146-0.523-1.72c-0.175-0.587-0.349-1.173-0.52-1.76
	c-0.175-0.6-0.348-1.198-0.518-1.798c-0.173-0.611-0.347-1.224-0.514-1.834c-0.172-0.622-0.344-1.244-0.511-1.867
	c-0.171-0.632-0.34-1.266-0.508-1.898c-0.168-0.641-0.338-1.284-0.504-1.926c-0.168-0.651-0.337-1.303-0.503-1.954
	c-0.168-0.658-0.334-1.318-0.498-1.978c-0.167-0.667-0.332-1.333-0.495-2c-0.165-0.674-0.33-1.348-0.493-2.021
	c-0.164-0.678-0.327-1.356-0.489-2.038c-0.163-0.684-0.324-1.367-0.483-2.052c-0.163-0.688-0.324-1.378-0.481-2.066
	c-0.161-0.691-0.32-1.385-0.479-2.077c-0.159-0.693-0.319-1.39-0.478-2.085c-0.158-0.696-0.316-1.395-0.473-2.093
	c-0.157-0.698-0.314-1.396-0.471-2.095c-0.155-0.699-0.312-1.398-0.464-2.099c-0.154-0.698-0.309-1.397-0.463-2.098
	c-0.154-0.697-0.307-1.396-0.46-2.095c-0.15-0.696-0.302-1.394-0.457-2.09c-0.151-0.694-0.302-1.39-0.453-2.082
	c-0.149-0.691-0.302-1.383-0.451-2.073c-0.148-0.688-0.3-1.375-0.446-2.062c-0.148-0.683-0.295-1.364-0.443-2.048
	c-0.146-0.677-0.293-1.354-0.439-2.03c-0.146-0.672-0.291-1.343-0.438-2.014c-0.146-0.664-0.289-1.329-0.434-1.992
	c-0.145-0.656-0.286-1.312-0.432-1.971c-0.142-0.646-0.282-1.296-0.426-1.943c-0.141-0.64-0.28-1.277-0.424-1.916
	c-0.141-0.631-0.28-1.26-0.418-1.889c-0.141-0.619-0.279-1.236-0.417-1.855c-0.137-0.606-0.274-1.214-0.413-1.821
	c-0.136-0.596-0.274-1.19-0.412-1.784c-0.134-0.583-0.27-1.165-0.406-1.747c-0.133-0.568-0.268-1.138-0.402-1.705
	c-0.133-0.555-0.266-1.107-0.399-1.661c-0.13-0.539-0.262-1.078-0.395-1.616c-0.131-0.523-0.262-1.047-0.394-1.569
	c-0.129-0.507-0.257-1.014-0.389-1.521c-0.127-0.488-0.257-0.979-0.385-1.468c-0.127-0.471-0.256-0.94-0.386-1.413
	c-0.123-0.451-0.25-0.903-0.377-1.354c-0.124-0.433-0.25-0.865-0.375-1.297c-0.124-0.412-0.246-0.825-0.372-1.236
	c-0.12-0.392-0.243-0.782-0.368-1.172c-0.12-0.37-0.239-0.738-0.365-1.106c-0.118-0.348-0.236-0.693-0.362-1.038
	c-0.116-0.324-0.234-0.648-0.358-0.97c-0.114-0.301-0.231-0.6-0.353-0.896c-0.113-0.275-0.231-0.549-0.352-0.821
	c-0.11-0.251-0.227-0.5-0.348-0.745c-0.106-0.224-0.224-0.446-0.344-0.666c-0.108-0.197-0.221-0.392-0.34-0.584
	c-0.106-0.17-0.219-0.338-0.336-0.5c-0.104-0.144-0.215-0.283-0.333-0.415c-0.104-0.116-0.212-0.226-0.329-0.326
	c-0.102-0.088-0.21-0.169-0.325-0.235c-0.103-0.061-0.209-0.109-0.324-0.146c-0.101-0.029-0.21-0.048-0.317-0.048h40.93
	c1.213,0,4.656,2.896,9.033,22.953c5.353,24.538,17.326,97.798,31.619,97.798c0,0-42.08,0-42.082,0"/>
<path id="rect3368-2_1_" inkscape:connector-curvature="0" sodipodi:nodetypes="ccsccc" fill="#2980B9" d="M469.565,533.131h40.928
	c1.214,0,4.656,2.896,9.032,22.953c5.354,24.54,17.332,97.797,31.621,97.797h-42.08C492.087,651.91,478.603,533.136,469.565,533.131
	z"/>
<path id="rect3368-2-7_2_" inkscape:connector-curvature="0" fill="#2980B9" d="M326.398,600.554
	c6.203,27.175,13.229,52.438,20.98,53.337h42.071"/>
<path id="rect3368-4-9_3_" inkscape:connector-curvature="0" sodipodi:nodetypes="ccsccc" fill="#29A7E8" d="M430.239,533.131
	h-40.93c-1.213,0-4.654,2.896-9.031,22.953c-5.354,24.54-17.327,97.797-31.621,97.797h42.081
	C407.716,651.91,421.199,533.136,430.239,533.131L430.239,533.131z"/>
<linearGradient id="rect3368-4-8_9_" gradientUnits="userSpaceOnUse" x1="535.6289" y1="998.1387" x2="535.6289" y2="998.1387" gradientTransform="matrix(1 0 0 -1 76.5 1612)">
	<stop  offset="0" style="stop-color:#CCCCCC"/>
	<stop  offset="0.4885" style="stop-color:#E6E6E6"/>
	<stop  offset="1" style="stop-color:#CCCCCC"/>
</linearGradient>
<path id="rect3368-4-8_4_" inkscape:connector-curvature="0" sodipodi:nodetypes="ccsccc" fill="url(#rect3368-4-8_9_)" d="
	M612.129,613.861"/>
<path id="rect3368-4-8_1_" inkscape:connector-curvature="0" sodipodi:nodetypes="ccsccc" fill="#F1C40F" d="M589.259,653.881h42.08
	c16.979-1.971,27.96-68.612,33.84-87.511"/>
<path id="rect3368-48_1_" inkscape:connector-curvature="0" sodipodi:nodetypes="ccsccc" fill="#1ABC9C" d="M549.791,533.131h40.929
	c1.213,0,4.655,2.896,9.032,22.953c5.354,24.54,17.331,97.797,31.624,97.797h-42.08C572.312,651.91,558.829,533.136,549.791,533.131
	z"/>
<path id="rect3368-4-9_2_" inkscape:connector-curvature="0" sodipodi:nodetypes="ccsccc" fill="#29A7E8" d="M510.653,533.131
	h-40.929c-1.213,0-4.654,2.896-9.031,22.953c-5.354,24.54-17.33,97.797-31.62,97.797h42.077
	C488.131,651.91,501.615,533.136,510.653,533.131L510.653,533.131z"/>
<path fill="#9999CC" d="M429.073,653.881"/>
<path fill="#ECF0F1" d="M429.188,653.872c0.11-0.003,0.222-0.009,0.33-0.021l-0.19,0.029h0.759c0.063-0.015,0.129-0.038,0.19-0.045
	c0.013,0,0.024-0.006,0.038-0.008c0.127-0.019,0.252-0.053,0.379-0.08c0.021-0.004,0.042-0.009,0.062-0.012
	c14.596-3.331,24.025-67.771,29.284-94.569C454.421,586.138,442.875,653.497,429.188,653.872z M434.192,651.381
	c0.023-0.022,0.049-0.044,0.072-0.068c-0.024,0.027-0.05,0.051-0.074,0.076C434.191,651.386,434.191,651.384,434.192,651.381z"/>
<linearGradient id="SVGID_2_" gradientUnits="userSpaceOnUse" x1="208.3896" y1="833.5938" x2="208.3896" y2="1028.9907" gradientTransform="matrix(1 0 0 -1 42.5 1294)">
	<stop  offset="0" style="stop-color:#005CBF"/>
	<stop  offset="0.2277" style="stop-color:#A0DCFF"/>
	<stop  offset="0.7868" style="stop-color:#1CB9F8"/>
	<stop  offset="0.958" style="stop-color:#0078B1"/>
</linearGradient>
<path fill="url(#SVGID_2_)" d="M222.207,445.768c0.205-0.006,0.41-0.017,0.614-0.037l-0.356,0.055h1.411
	c0.117-0.028,0.24-0.071,0.354-0.083c0.024-0.001,0.046-0.011,0.07-0.016c0.236-0.032,0.47-0.099,0.705-0.148
	c0.042-0.007,0.077-0.016,0.117-0.021c27.142-6.193,44.674-126.014,54.451-175.845C269.127,319.819,247.657,445.071,222.207,445.768
	z M231.513,441.135c0.045-0.044,0.091-0.082,0.136-0.126c-0.046,0.05-0.093,0.092-0.139,0.142
	C231.512,441.145,231.512,441.141,231.513,441.135z"/>
<path fill="#ECF0F1" d="M348.657,653.872c0.109-0.003,0.221-0.009,0.33-0.021l-0.191,0.029h0.759
	c0.063-0.015,0.129-0.038,0.19-0.045c0.013,0,0.024-0.006,0.038-0.008c0.127-0.019,0.252-0.053,0.379-0.08
	c0.021-0.004,0.042-0.009,0.062-0.012c14.597-3.331,24.025-67.771,29.284-94.569C373.89,586.138,362.344,653.497,348.657,653.872z
	 M353.661,651.381c0.023-0.022,0.049-0.044,0.073-0.068c-0.025,0.027-0.051,0.051-0.075,0.076
	C353.661,651.386,353.661,651.384,353.661,651.381z"/>
<path id="rect3368-4-9-4_2_" inkscape:connector-curvature="0" sodipodi:nodetypes="ccsccc" fill="#ECF0F1" d="M538.27,756.491
	h-18.313c-0.543,0-2.083,1.296-4.042,10.271c-2.396,10.98-7.754,43.763-14.149,43.763h18.829
	C528.191,809.643,534.226,756.493,538.27,756.491L538.27,756.491z"/>
<path id="rect3368_2_" inkscape:connector-curvature="0" sodipodi:nodetypes="ccsccc" fill="#7F8C8D" d="M465.871,810.524
	c0.151-0.001,0.299-0.032,0.446-0.034c-0.194,0.055-0.41,0.049-0.606,0.006c-0.09-0.021-0.178-0.046-0.265-0.079
	c-0.09-0.034-0.179-0.075-0.265-0.12c-0.09-0.048-0.178-0.101-0.263-0.159c-0.09-0.062-0.176-0.129-0.261-0.198
	c-0.089-0.075-0.175-0.154-0.258-0.237c-0.09-0.087-0.177-0.18-0.259-0.274c-0.089-0.1-0.175-0.204-0.257-0.31
	c-0.088-0.113-0.173-0.229-0.256-0.346c-0.087-0.126-0.173-0.251-0.255-0.381c-0.086-0.135-0.171-0.271-0.253-0.411
	c-0.086-0.146-0.17-0.297-0.252-0.445c-0.085-0.156-0.169-0.315-0.25-0.477c-0.085-0.167-0.168-0.336-0.249-0.506
	c-0.084-0.177-0.166-0.355-0.248-0.535c-0.084-0.188-0.165-0.373-0.246-0.562c-0.083-0.196-0.166-0.393-0.246-0.59
	c-0.083-0.205-0.164-0.41-0.244-0.616c-0.083-0.213-0.163-0.427-0.243-0.641c-0.082-0.222-0.161-0.442-0.24-0.664
	c-0.081-0.229-0.161-0.458-0.24-0.688c-0.081-0.235-0.16-0.473-0.238-0.71c-0.08-0.243-0.159-0.486-0.235-0.729
	c-0.08-0.25-0.158-0.5-0.236-0.751c-0.079-0.256-0.156-0.514-0.234-0.771c-0.079-0.263-0.155-0.523-0.232-0.787
	c-0.078-0.268-0.155-0.536-0.231-0.805c-0.078-0.273-0.155-0.547-0.229-0.82c-0.077-0.277-0.154-0.557-0.229-0.836
	c-0.077-0.282-0.152-0.564-0.227-0.85c-0.075-0.286-0.151-0.574-0.227-0.861c-0.076-0.292-0.149-0.583-0.226-0.875
	c-0.075-0.294-0.149-0.59-0.224-0.885c-0.073-0.298-0.147-0.596-0.221-0.896c-0.074-0.301-0.146-0.603-0.221-0.903
	c-0.073-0.304-0.146-0.607-0.219-0.912c-0.073-0.307-0.146-0.611-0.217-0.918c-0.072-0.309-0.145-0.616-0.216-0.925
	c-0.071-0.311-0.143-0.619-0.214-0.931c-0.072-0.311-0.143-0.621-0.214-0.933c-0.071-0.312-0.141-0.624-0.211-0.938
	c-0.07-0.312-0.141-0.625-0.21-0.938c-0.07-0.312-0.141-0.626-0.208-0.938c-0.069-0.312-0.138-0.626-0.208-0.938
	c-0.069-0.312-0.137-0.625-0.206-0.938c-0.067-0.312-0.135-0.623-0.205-0.936c-0.067-0.311-0.135-0.621-0.202-0.932
	c-0.066-0.31-0.135-0.618-0.202-0.929c-0.066-0.308-0.134-0.614-0.199-0.923c-0.066-0.305-0.133-0.609-0.198-0.916
	c-0.066-0.303-0.131-0.605-0.197-0.909c-0.064-0.3-0.13-0.601-0.195-0.899c-0.064-0.297-0.129-0.596-0.193-0.893
	c-0.064-0.294-0.128-0.588-0.193-0.882c-0.062-0.29-0.126-0.58-0.191-0.87c-0.062-0.285-0.125-0.57-0.188-0.856
	c-0.062-0.281-0.125-0.562-0.188-0.846c-0.062-0.275-0.125-0.554-0.187-0.829c-0.062-0.271-0.123-0.545-0.185-0.815
	c-0.062-0.267-0.123-0.532-0.185-0.798c-0.06-0.262-0.121-0.521-0.182-0.782c-0.061-0.255-0.12-0.509-0.181-0.763
	c-0.059-0.248-0.118-0.496-0.179-0.744c-0.058-0.241-0.117-0.482-0.176-0.723c-0.058-0.234-0.117-0.47-0.176-0.703
	c-0.059-0.228-0.115-0.453-0.174-0.681c-0.058-0.219-0.115-0.438-0.173-0.655c-0.057-0.211-0.113-0.423-0.172-0.634
	c-0.055-0.202-0.111-0.403-0.168-0.605c-0.056-0.193-0.111-0.388-0.168-0.58c-0.055-0.186-0.109-0.369-0.166-0.554
	c-0.054-0.176-0.108-0.351-0.165-0.524c-0.054-0.165-0.106-0.33-0.164-0.495c-0.052-0.155-0.104-0.311-0.162-0.465
	c-0.052-0.146-0.104-0.29-0.159-0.434c-0.052-0.135-0.104-0.269-0.158-0.401c-0.05-0.123-0.104-0.245-0.157-0.367
	c-0.05-0.112-0.102-0.224-0.155-0.334c-0.048-0.1-0.101-0.199-0.153-0.298c-0.049-0.088-0.1-0.175-0.152-0.261
	c-0.047-0.076-0.098-0.151-0.15-0.226c-0.047-0.062-0.096-0.126-0.148-0.186c-0.046-0.052-0.095-0.102-0.147-0.146
	c-0.045-0.039-0.094-0.075-0.145-0.104c-0.045-0.027-0.094-0.05-0.146-0.065c-0.045-0.014-0.094-0.021-0.143-0.021h18.314
	c0.544,0,2.084,1.297,4.043,10.271c2.396,10.98,7.753,43.763,14.148,43.763h-18.831"/>
<path id="rect3368-2_2_" inkscape:connector-curvature="0" sodipodi:nodetypes="ccsccc" fill="#7F8C8D" d="M484.054,756.491h18.314
	c0.543,0,2.084,1.296,4.042,10.271c2.396,10.98,7.756,43.763,14.148,43.763H501.73C494.132,809.643,488.098,756.493,484.054,756.491
	z"/>
<path id="rect3368-2-7_3_" inkscape:connector-curvature="0" fill="#7F8C8D" d="M419.99,786.661
	c2.775,12.16,5.92,23.465,9.389,23.867h18.826"/>
<path id="rect3368-4-9_5_" inkscape:connector-curvature="0" sodipodi:nodetypes="ccsccc" fill="#95A5A6" d="M466.457,756.491
	h-18.315c-0.543,0-2.083,1.296-4.042,10.271c-2.396,10.98-7.754,43.763-14.149,43.763h18.83
	C456.378,809.643,462.412,756.493,466.457,756.491L466.457,756.491z"/>
<linearGradient id="rect3368-4-8_10_" gradientUnits="userSpaceOnUse" x1="471.3477" y1="819.3838" x2="471.3477" y2="819.3838" gradientTransform="matrix(1 0 0 -1 76.5 1612)">
	<stop  offset="0" style="stop-color:#CCCCCC"/>
	<stop  offset="0.4885" style="stop-color:#E6E6E6"/>
	<stop  offset="1" style="stop-color:#CCCCCC"/>
</linearGradient>
<path id="rect3368-4-8_6_" inkscape:connector-curvature="0" sodipodi:nodetypes="ccsccc" fill="url(#rect3368-4-8_10_)" d="
	M547.848,792.616"/>
<path id="rect3368-4-8_5_" inkscape:connector-curvature="0" sodipodi:nodetypes="ccsccc" fill="#7F8C8D" d="M537.614,810.524h18.83
	c7.598-0.883,12.511-30.703,15.143-39.159"/>
<path id="rect3368-48_2_" inkscape:connector-curvature="0" sodipodi:nodetypes="ccsccc" fill="#95A5A6" d="M519.953,756.491h18.313
	c0.544,0,2.083,1.296,4.042,10.271c2.396,10.98,7.756,43.763,14.151,43.763h-18.83C530.031,809.643,523.998,756.493,519.953,756.491
	z"/>
<path id="rect3368-4-9_4_" inkscape:connector-curvature="0" sodipodi:nodetypes="ccsccc" fill="#95A5A6" d="M502.44,756.491
	h-18.314c-0.543,0-2.083,1.296-4.042,10.271c-2.396,10.98-7.754,43.763-14.149,43.763h18.828
	C492.362,809.643,498.396,756.493,502.44,756.491L502.44,756.491z"/>
<path fill="#9999CC" d="M465.935,810.524"/>
<path fill="#ECF0F1" d="M465.986,810.521c0.049-0.003,0.099-0.005,0.147-0.011l-0.086,0.015h0.34
	c0.028-0.008,0.059-0.019,0.085-0.021c0.006,0,0.012-0.003,0.018-0.004c0.057-0.008,0.112-0.023,0.169-0.035
	c0.01-0.002,0.019-0.004,0.028-0.006c6.531-1.49,10.75-30.325,13.104-42.317C477.277,780.211,472.111,810.354,465.986,810.521z
	 M468.226,809.405c0.012-0.011,0.021-0.021,0.033-0.03c-0.011,0.012-0.021,0.021-0.034,0.034
	C468.225,809.407,468.225,809.406,468.226,809.405z"/>
<path fill="#ECF0F1" d="M429.95,810.521c0.05-0.003,0.099-0.005,0.147-0.011l-0.085,0.015h0.339
	c0.028-0.008,0.059-0.019,0.086-0.021c0.006,0,0.011-0.003,0.017-0.004c0.057-0.008,0.113-0.023,0.17-0.035
	c0.01-0.002,0.019-0.004,0.028-0.006c6.531-1.49,10.75-30.325,13.104-42.317C441.242,780.211,436.075,810.354,429.95,810.521z
	 M432.19,809.405c0.011-0.011,0.021-0.021,0.032-0.03c-0.011,0.012-0.021,0.021-0.033,0.034
	C432.189,809.407,432.189,809.406,432.19,809.405z"/>
</svg>
