<svg xmlns="http://www.w3.org/2000/svg" viewBox="0 0 64 64"><g><path style="text-indent:0;text-align:start;line-height:normal;text-transform:none;block-progression:tb;-inkscape-font-specification:Sans" d="M46.656 26.906a.55.55 0 0 0-.063.031.55.55 0 0 0-.063.031.55.55 0 0 0-.125.063.55.55 0 0 0-.125.156l-6.188 7.188a.554.554 0 1 0 .844.719l5.281-6.156v12.5a.55.55 0 1 0 1.094 0v-12.5l5.281 6.156a.554.554 0 1 0 .844-.719l-6.219-7.219a.55.55 0 0 0-.031-.031v-.031a.55.55 0 0 0-.063-.063.55.55 0 0 0-.031 0 .55.55 0 0 0-.125-.094.55.55 0 0 0-.031 0 .55.55 0 0 0-.063-.031.55.55 0 0 0-.031 0 .55.55 0 0 0-.031 0 .55.55 0 0 0-.063 0 .55.55 0 0 0-.031 0 .55.55 0 0 0-.063 0z" color="#000" fill="#eee" overflow="visible" enable-background="accumulate" font-family="Sans"/><path d="M35.055 32.488l-4.365.003-5.536 10.429-7.476-17.256-7.362 10.833" stroke="#eee" stroke-width="1.1" stroke-linecap="round" stroke-linejoin="round" fill="none"/><path d="M58.465 34.672c.174 6.12-5.306 11.742-11.428 11.727-6.114.332-11.876-5.002-12.018-11.123-.489-6.104 4.697-12.001 10.813-12.3 6.144-.652 12.213 4.478 12.587 10.646.031.349.046.699.046 1.05z" stroke="#eee" stroke-width="1.1" stroke-linecap="round" stroke-linejoin="round" fill="none"/><path d="M42.375 9.219c-4.227.172-7.967 2.856-10.313 6.25-2.772-4.181-8.039-6.984-13.065-5.613-7.193 1.814-11.553 9.489-11.267 16.611.202 8.776 5.718 16.434 12.089 22.027 3.74 3.3 7.903 6.092 12.243 8.538 5.073-3.027 9.911-6.502 14.125-10.656-6.282-.124-11.655-6.029-11.172-12.291.173-6.185 5.937-11.492 12.118-11.14 3.762.09 7.388 2.152 9.429 5.306 1.198-6.857-1.83-14.709-8.319-17.809-1.817-.878-3.849-1.325-5.868-1.222z" stroke="#eee" stroke-width="1.1" stroke-linecap="round" stroke-linejoin="round" fill="none"/></g></svg>