<svg xmlns="http://www.w3.org/2000/svg" viewBox="0 0 64 64"><g><g><path d="M16.498 30.683h3.75c4.155-.346 6.149-14.759 9.893-15.397l-3.909-.03c-3.879.587-5.91 14.748-9.733 15.428z" fill="#f39c12"/><path d="M29.114 17.699c1.246 2.328 1.97 4.329 3.002 6.751.531-1.381.548-1.431 2.05-4.696-.63-1.632-1.062-2.706-1.672-3.057-1.334-.918-2.247-.33-3.379 1.002zm5.55 3.386c-.942 2.364-1.415 3.242-2.001 4.805 1.421 2.868 2.062 4.807 3.6 4.815h4.209c-1.998.006-5.73-9.854-5.807-9.62z" fill="#e74c3f" fill-opacity=".941"/><path d="M36.95 17.543c1.1-1.103 2.346-1.663 3.385-.79 3.375 4.562 3.979 13.105 8.18 13.99h-4.175c-3.562-.96-4.6-8.639-7.39-13.2z" fill="#2980bf" fill-opacity=".941"/><path d="M23.945 30.717l4.43-.012c3.829-2.749 4.899-13.307 9.76-15.436h-4.003c-4.516 1.876-6.412 13.105-10.187 15.436z" fill="#27ae6f"/></g><path d="M31.857 4.632c-9.27 0-15.365 3.732-18.93 10.668-2.046 3.295-3.266 7.389-4.531 21.161l3.742 1.488c.778 12.704 2.72 13.593 11.244 13.402l.112 8.346 20.218-.284v-17.862c6.564-3.496 10.946-9.806 10.946-17.011 0-10.996-10.208-19.909-22.801-19.909zm.628 2.476c9.459 0 17.128 7.722 17.128 17.249 0 9.527-7.669 17.249-17.128 17.249s-17.128-7.722-17.128-17.249c0-9.527 7.669-17.249 17.128-17.249z" color="#000" fill="#e3e3e3" overflow="visible" enable-background="accumulate"/></g></svg>