<svg xmlns="http://www.w3.org/2000/svg" viewBox="0 0 64 64"><g stroke="#eee" stroke-width="1.1" stroke-linecap="round" stroke-linejoin="round" fill="none"><path d="M46.756 27.465l-6.251 7.28m46.756 41.452v-13.987l6.251 7.28"/><path d="M35.055 32.488l-4.365.003-5.536 10.429-7.476-17.256-7.362 10.833"/><path d="M58.465 34.672c.174 6.12-5.306 11.742-11.428 11.727-6.114.332-11.876-5.002-12.018-11.123-.489-6.104 4.697-12.001 10.813-12.3 6.144-.652 12.213 4.478 12.587 10.646.031.349.046.699.046 1.05z"/><path d="M42.375 9.219c-4.227.172-7.967 2.856-10.313 6.25-2.772-4.181-8.039-6.984-13.065-5.613-7.193 1.814-11.553 9.489-11.267 16.611.202 8.776 5.718 16.434 12.089 22.027 3.74 3.3 7.903 6.092 12.243 8.538 5.073-3.027 9.911-6.502 14.125-10.656-6.282-.124-11.655-6.029-11.172-12.291.173-6.185 5.937-11.492 12.118-11.14 3.762.09 7.388 2.152 9.429 5.306 1.198-6.857-1.83-14.709-8.319-17.809-1.817-.878-3.849-1.325-5.868-1.222z"/></g></svg>