<?xml version="1.0" encoding="UTF-8" standalone="no"?>
<svg
   xmlns:dc="http://purl.org/dc/elements/1.1/"
   xmlns:cc="http://creativecommons.org/ns#"
   xmlns:rdf="http://www.w3.org/1999/02/22-rdf-syntax-ns#"
   xmlns:svg="http://www.w3.org/2000/svg"
   xmlns="http://www.w3.org/2000/svg"
   xmlns:sodipodi="http://sodipodi.sourceforge.net/DTD/sodipodi-0.dtd"
   xmlns:inkscape="http://www.inkscape.org/namespaces/inkscape"
   viewBox="0 0 450 450"
   id="svg2"
   version="1.1"
   inkscape:version="0.48.2 r9819"
   width="100%"
   height="100%"
   sodipodi:docname="icon-network.svg">
  <metadata
     id="metadata10">
    <rdf:RDF>
      <cc:Work
         rdf:about="">
        <dc:format>image/svg+xml</dc:format>
        <dc:type
           rdf:resource="http://purl.org/dc/dcmitype/StillImage" />
      </cc:Work>
    </rdf:RDF>
  </metadata>
  <defs
     id="defs8" />
  <sodipodi:namedview
     pagecolor="#ffffff"
     bordercolor="#666666"
     borderopacity="1"
     objecttolerance="10"
     gridtolerance="10"
     guidetolerance="10"
     inkscape:pageopacity="0"
     inkscape:pageshadow="2"
     inkscape:window-width="899"
     inkscape:window-height="566"
     id="namedview6"
     showgrid="false"
     inkscape:zoom="2.0977778"
     inkscape:cx="133.91217"
     inkscape:cy="233.62137"
     inkscape:window-x="0"
     inkscape:window-y="0"
     inkscape:window-maximized="0"
     inkscape:current-layer="svg2" />
  <path
     d="m 133.199,106.343 c 0,14.104 -11.433,25.537 -25.537,25.537 -14.104,0 -25.537,-11.433 -25.537,-25.537 0,-14.104 11.433,-25.537 25.537,-25.537 14.104,0 25.537,11.433 25.537,25.537 z M 84.583,224.899 c 0,14.104 -11.433,25.537 -25.537,25.537 -14.104,0 -25.537,-11.433 -25.537,-25.537 0,-14.104 11.433,-25.537 25.537,-25.537 14.104,0 25.537,11.433 25.537,25.537 z m 48.616,117.375 c 0,14.104 -11.433,25.537 -25.537,25.537 -14.104,0 -25.537,-11.433 -25.537,-25.537 0,-14.104 11.433,-25.537 25.537,-25.537 14.104,0 25.537,11.433 25.537,25.537 z m 117.376,48.617 c 0,14.104 -11.433,25.537 -25.537,25.537 -14.104,0 -25.537,-11.433 -25.537,-25.537 0,-14.104 11.433,-25.537 25.537,-25.537 14.104,0 25.537,11.433 25.537,25.537 z m 114.918,-51.074 c 0,14.104 -11.433,25.537 -25.537,25.537 -14.104,0 -25.537,-11.433 -25.537,-25.537 0,-14.104 11.433,-25.537 25.537,-25.537 14.104,0 25.537,11.433 25.537,25.537 z m 51.074,-114.918 c 0,14.104 -11.433,25.537 -25.537,25.537 -14.104,0 -25.537,-11.433 -25.537,-25.537 0,-14.104 11.433,-25.537 25.537,-25.537 14.104,0 25.537,11.433 25.537,25.537 z M 367.951,107.524 c 0,14.104 -11.433,25.537 -25.537,25.537 -14.104,0 -25.537,-11.433 -25.537,-25.537 0,-14.104 11.433,-25.537 25.537,-25.537 14.104,0 25.537,11.433 25.537,25.537 z M 250.575,58.907 c 0,14.104 -11.433,25.537 -25.537,25.537 -14.104,0 -25.537,-11.433 -25.537,-25.537 0,-14.104 11.433,-25.537 25.537,-25.537 14.104,0 25.537,11.433 25.537,25.537 z m -129.369,61.116 207.663,207.664 m -103.831,44.054 0,-293.682 m -146.839,146.84 295.00427,0 M 121.206,328.731 328.87,121.067"
     stroke-miterlimit="10"
     id="path4"
     style="fill:none;stroke:#eeeeee;stroke-width:7;stroke-miterlimit:10;stroke-dasharray:none"
     inkscape:connector-curvature="0"
     sodipodi:nodetypes="sssssssssssssssssssssssssssssssssssssssscccccccc" />
</svg>
