<svg xmlns="http://www.w3.org/2000/svg" viewBox="0 0 64 64"><g><path color="#000" fill="#1abc9c" overflow="visible" enable-background="accumulate" d="M0 0h64v64h-64z"/><g><path d="M41.249 8.182c-4.227.172-7.967 2.856-10.313 6.25-2.772-4.181-8.039-6.984-13.065-5.613-7.193 1.814-11.553 9.489-11.267 16.611.202 8.776 5.718 16.434 12.089 22.027 3.74 3.3 7.903 6.092 12.243 8.538 5.073-3.027 9.911-6.502 14.125-10.656-6.282-.124-11.655-6.029-11.172-12.291.173-6.185 5.937-11.492 12.118-11.14 3.762.09 7.388 2.152 9.429 5.306 1.198-6.857-1.83-14.709-8.319-17.809-1.817-.878-3.849-1.325-5.868-1.222z" fill="#e74c3f" stroke="#c0392f" stroke-width="1.5" stroke-linecap="round" stroke-linejoin="round"/><path d="M57.089 33.26c.174 6.12-5.306 11.742-11.428 11.727-6.114.332-11.876-5.002-12.018-11.123-.489-6.104 4.697-12.001 10.813-12.3 6.144-.652 12.213 4.478 12.587 10.646.031.349.046.699.046 1.05z" fill="#3799df"/><path d="M41.031 8.195c-4.227.172-7.967 2.856-10.313 6.25l-.031-.031v41.563l.031.031c5.073-3.027 9.911-6.502 14.125-10.656-6.282-.124-11.639-6.019-11.156-12.281.173-6.185 5.913-11.508 12.094-11.156 3.762.09 7.397 2.158 9.438 5.313 1.198-6.857-1.824-14.712-8.313-17.813-1.817-.878-3.856-1.322-5.875-1.219z" color="#000" fill="#c0392f" overflow="visible" enable-background="accumulate"/><path d="M16.186 23.487c-.205.038-.391.166-.5.344-1.72 2.522-4.175 5.799-6.741 9.544.137.377.396 1.025.758 1.633 2.335-3.414 4.533-6.399 6.452-9.209l6.938 16c.223.51 1.075.549 1.344.063l5.313-10.031h3.938l.29-1.5h-4.665c-.264-.002-.524.146-.656.375l-4.813 9.063-6.844-15.813c-.123-.315-.479-.52-.813-.469z" style="text-indent:0;text-align:start;line-height:normal;text-transform:none;block-progression:tb;-inkscape-font-specification:Sans" color="#000" fill="#fff" overflow="visible" enable-background="accumulate" font-family="Sans"/></g><path d="M45.255 21.756v23.45h.406c6.117.015 11.602-5.595 11.428-11.709 0-.35-.032-.713-.062-1.062-.358-5.896-5.916-10.83-11.772-10.679z" color="#000" fill="#2980bf" fill-opacity=".941" overflow="visible" enable-background="accumulate"/><path d="M57.089 33.613c.174 6.12-5.306 11.742-11.428 11.727-6.114.332-11.876-5.002-12.018-11.123-.489-6.104 4.697-12.001 10.813-12.3 6.144-.652 12.213 4.478 12.587 10.646.031.349.046.699.046 1.05z" stroke="#fff" stroke-width="1.6" stroke-linecap="round" stroke-linejoin="round" fill="none"/><path style="text-indent:0;text-align:start;line-height:normal;text-transform:none;block-progression:tb;-inkscape-font-specification:Sans" d="M45.255 25.796s-4.706 5.15-6.781 7.562l1.219 1.031 4.844-5.625v11.813s1.578.007 1.594 0v-11.813l4.844 5.625 1.219-1.031s-6.934-7.563-6.938-7.562z" color="#000" fill="#fff" overflow="visible" enable-background="accumulate" font-family="Sans"/></g></svg>