<?xml version="1.0" encoding="UTF-8" standalone="no"?>
<!-- Created with Inkscape (http://www.inkscape.org/) -->

<svg
   xmlns:dc="http://purl.org/dc/elements/1.1/"
   xmlns:cc="http://creativecommons.org/ns#"
   xmlns:rdf="http://www.w3.org/1999/02/22-rdf-syntax-ns#"
   xmlns:svg="http://www.w3.org/2000/svg"
   xmlns="http://www.w3.org/2000/svg"
   xmlns:sodipodi="http://sodipodi.sourceforge.net/DTD/sodipodi-0.dtd"
   xmlns:inkscape="http://www.inkscape.org/namespaces/inkscape"
   width="64px"
   height="64px"
   id="svg3137"
   version="1.1"
   inkscape:version="0.48.2 r9819"
   sodipodi:docname="icon-heart-2.svg">
  <defs
     id="defs3139" />
  <sodipodi:namedview
     id="base"
     pagecolor="#ffffff"
     bordercolor="#666666"
     borderopacity="1.0"
     inkscape:pageopacity="0.0"
     inkscape:pageshadow="2"
     inkscape:zoom="6.7266739"
     inkscape:cx="67.528697"
     inkscape:cy="19.975767"
     inkscape:current-layer="layer1"
     showgrid="true"
     inkscape:document-units="px"
     inkscape:grid-bbox="true"
     inkscape:window-width="1245"
     inkscape:window-height="677"
     inkscape:window-x="20"
     inkscape:window-y="20"
     inkscape:window-maximized="0"
     showguides="true"
     inkscape:guide-bbox="true">
    <sodipodi:guide
       orientation="1,0"
       position="30.935922,36.062446"
       id="guide3775" />
  </sodipodi:namedview>
  <metadata
     id="metadata3142">
    <rdf:RDF>
      <cc:Work
         rdf:about="">
        <dc:format>image/svg+xml</dc:format>
        <dc:type
           rdf:resource="http://purl.org/dc/dcmitype/StillImage" />
      </cc:Work>
    </rdf:RDF>
  </metadata>
  <g
     id="layer1"
     inkscape:label="Layer 1"
     inkscape:groupmode="layer">
    <rect
       style="color:#000000;fill:#1abc9c;fill-opacity:1;fill-rule:nonzero;stroke:none;stroke-width:10;marker:none;visibility:visible;display:inline;overflow:visible;enable-background:accumulate"
       id="rect3959"
       width="64"
       height="64"
       x="0"
       y="3.5527137e-15" />
    <g
       transform="translate(-1.6255681,0.69270983)"
       id="g3853">
      <g
         id="layer4"
         transform="translate(0.249125,-3.805128)">
        <g
           id="g3838">
          <g
             id="g3843">
            <g
               id="g3848">
              <g
                 id="g3941"
                 transform="translate(-1.349254e-4,1.6996148)">
                <path
                   style="fill:#e74c3f;fill-opacity:1;stroke:#c0392f;stroke-width:1.5;stroke-linecap:round;stroke-linejoin:round;stroke-miterlimit:4;stroke-opacity:1;stroke-dasharray:none"
                   d="m 42.625,9.59375 c -4.226896,0.1716667 -7.966689,2.855925 -10.3125,6.25 C 29.540774,11.662505 24.273627,8.8596532 19.247136,10.231163 12.054022,12.045591 7.694037,19.72014 7.979964,26.841767 c 0.202448,8.775947 5.718292,16.43402 12.089258,22.026624 3.739983,3.299761 7.903357,6.092444 12.243278,8.537859 C 37.385087,54.37898 42.223145,50.904642 46.4375,46.75 40.155548,46.625857 34.782718,40.721383 35.265319,34.458791 35.438574,28.273829 41.202418,22.967082 47.383329,23.318679 51.145241,23.408872 54.771518,25.470427 56.8125,28.625 58.010761,21.768017 54.982181,13.916066 48.493336,10.8157 46.676403,9.9373037 44.644321,9.4904972 42.625,9.59375 z"
                   id="path4184-4"
                   inkscape:connector-curvature="0" />
                <path
                   style="fill:#3799df;fill-opacity:1;stroke:none"
                   d="m 58.46537,34.671871 c 0.173503,6.119512 -5.306004,11.741903 -11.427802,11.726743 -6.1138,0.331655 -11.875764,-5.002367 -12.018081,-11.123089 -0.48858,-6.104074 4.69701,-12.001205 10.812755,-12.300023 6.143669,-0.651606 12.212611,4.477591 12.586786,10.646488 0.03096,0.349046 0.04634,0.699474 0.04634,1.049881 z"
                   id="path2992"
                   inkscape:connector-curvature="0" />
                <path
                   sodipodi:nodetypes="ccccccccccc"
                   transform="translate(1.126578,0.41083947)"
                   inkscape:connector-curvature="0"
                   id="rect3777"
                   d="m 41.279672,9.1964091 c -4.226896,0.171667 -7.966689,2.8559259 -10.3125,6.2500009 -0.0081,-0.0122 -0.02312,-0.01908 -0.03125,-0.03125 l 0,41.5625 c 0.25,0.0695 0.01883,0.02425 0.03125,0.03125 5.072587,-3.02727 9.910645,-6.501608 14.125,-10.65625 -6.281952,-0.124143 -11.638851,-6.018658 -11.15625,-12.28125 0.173255,-6.184962 5.912839,-11.507847 12.09375,-11.15625 3.761912,0.09019 7.396518,2.157927 9.4375,5.3125 1.198261,-6.856983 -1.823655,-14.712134 -8.3125,-17.8125 -1.816933,-0.8783969 -3.855679,-1.3220029 -5.875,-1.2187509 z"
                   style="color:#000000;fill:#c0392f;fill-opacity:1;stroke:none;stroke-width:1.5;marker:none;visibility:visible;display:inline;overflow:visible;enable-background:accumulate" />
                <path
                   id="path2990"
                   d="m 17.561797,24.898932 c -0.204633,0.03848 -0.390792,0.166467 -0.5,0.34375 -1.720311,2.521882 -4.17535,5.79892 -6.741403,9.54438 0.136796,0.377339 0.396273,1.024646 0.758043,1.63287 2.334728,-3.413606 4.533382,-6.399204 6.45211,-9.2085 l 6.9375,16 c 0.222744,0.509649 1.074662,0.549273 1.34375,0.0625 l 5.3125,-10.03125 c 1.309477,-8.21e-4 2.628051,8.4e-4 3.9375,0 l 0.290273,-1.5 c -1.454967,9.33e-4 -3.210341,-9e-4 -4.665273,0 -0.264036,-0.0023 -0.524224,0.146331 -0.65625,0.375 l -4.8125,9.0625 -6.84375,-15.8125 c -0.122783,-0.314676 -0.478624,-0.519968 -0.8125,-0.46875 z"
                   style="font-size:medium;font-style:normal;font-variant:normal;font-weight:normal;font-stretch:normal;text-indent:0;text-align:start;text-decoration:none;line-height:normal;letter-spacing:normal;word-spacing:normal;text-transform:none;direction:ltr;block-progression:tb;writing-mode:lr-tb;text-anchor:start;baseline-shift:baseline;color:#000000;fill:#ffffff;fill-opacity:1;stroke:none;stroke-width:1.5;marker:none;visibility:visible;display:inline;overflow:visible;enable-background:accumulate;font-family:Sans;-inkscape-font-specification:Sans"
                   inkscape:connector-curvature="0" />
              </g>
            </g>
          </g>
        </g>
      </g>
    </g>
    <path
       style="color:#000000;fill:#2980bf;fill-opacity:0.94117647;fill-rule:nonzero;stroke:none;stroke-width:1.60000001999999997;marker:none;visibility:visible;display:inline;overflow:visible;enable-background:accumulate"
       d="m 45.254834,21.756433 0,23.449599 c 0.137454,-0.0018 0.268046,0.0075 0.405918,0 6.116803,0.01515 11.601529,-5.594669 11.428167,-11.709187 0,-0.350121 -0.03151,-0.712872 -0.06245,-1.061633 C 56.668833,26.538968 51.110637,21.604874 45.254834,21.756433 z"
       id="rect3956"
       inkscape:connector-curvature="0" />
    <path
       inkscape:connector-curvature="0"
       style="fill:none;fill-opacity:1;stroke:#ffffff;stroke-width:1.60000001999999997;stroke-linecap:round;stroke-linejoin:round;stroke-miterlimit:4;stroke-opacity:1;stroke-dasharray:none"
       d="m 57.088657,33.612621 c 0.173503,6.119512 -5.306004,11.741903 -11.427802,11.726743 -6.1138,0.331655 -11.875764,-5.002367 -12.018081,-11.123089 -0.48858,-6.104074 4.69701,-12.001205 10.812755,-12.300023 6.143669,-0.651606 12.212611,4.477591 12.586786,10.646488 0.03096,0.349046 0.04634,0.699474 0.04634,1.049881 z"
       id="path2992-3" />
    <path
       style="font-size:medium;font-style:normal;font-variant:normal;font-weight:normal;font-stretch:normal;text-indent:0;text-align:start;text-decoration:none;line-height:normal;letter-spacing:normal;word-spacing:normal;text-transform:none;direction:ltr;block-progression:tb;writing-mode:lr-tb;text-anchor:start;baseline-shift:baseline;color:#000000;fill:#ffffff;fill-opacity:1;fill-rule:nonzero;stroke:none;stroke-width:1.60000002;marker:none;visibility:visible;display:inline;overflow:visible;enable-background:accumulate;font-family:Sans;-inkscape-font-specification:Sans"
       d="m 45.27498,25.795838 a 0.80008001,0.80008001 0 0 0 -0.3125,0.09375 0.80008001,0.80008001 0 0 0 -0.09375,0.0625 0.80008001,0.80008001 0 0 0 -0.03125,0.03125 0.80008001,0.80008001 0 0 0 -0.03125,0.03125 0.80008001,0.80008001 0 0 0 -0.0625,0.0625 0.80008001,0.80008001 0 0 0 -0.09375,0.125 l -6.15625,7.156249 a 0.80008001,0.80008001 0 1 0 1.21875,1.03125 l 4.84375,-5.625 0,11.812501 a 0.80008001,0.80008001 0 1 0 1.59375,0 l 0,-11.812501 4.84375,5.625 a 0.80008001,0.80008001 0 1 0 1.21875,-1.03125 l -6.1875,-7.187499 a 0.80008001,0.80008001 0 0 0 -0.09375,-0.125 0.80008001,0.80008001 0 0 0 -0.03125,-0.03125 0.80008001,0.80008001 0 0 0 -0.0625,-0.03125 0.80008001,0.80008001 0 0 0 -0.03125,-0.0625 0.80008001,0.80008001 0 0 0 -0.03125,0 0.80008001,0.80008001 0 0 0 -0.03125,-0.03125 0.80008001,0.80008001 0 0 0 -0.03125,0 0.80008001,0.80008001 0 0 0 -0.0625,-0.03125 0.80008001,0.80008001 0 0 0 -0.03125,0 0.80008001,0.80008001 0 0 0 -0.03125,-0.03125 0.80008001,0.80008001 0 0 0 -0.03125,0 0.80008001,0.80008001 0 0 0 -0.125,-0.03125 0.80008001,0.80008001 0 0 0 -0.03125,0 0.80008001,0.80008001 0 0 0 -0.0625,0 0.80008001,0.80008001 0 0 0 -0.0625,0 z"
       id="path3949-8"
       inkscape:connector-curvature="0" />
  </g>
</svg>
