<svg xmlns="http://www.w3.org/2000/svg" viewBox="0 0 50 50"><path d="M33.726 24.789c-1.64-1.64-.513-4.248-1.77-6.086-1.036-2.344-.416-4.931-.783-7.375-.283-2.254-2.843-1.649-4.161-2.739-1.249-1.325 1.047-2.926.384-3.884.233-1.469-.739-3.214-2.417-3.112-1.67-.087-2.623 1.651-2.391 3.111-.663.957 1.631 2.56.383 3.884-1.319 1.089-3.879.485-4.161 2.739-.387 2.612.338 5.446-1.038 7.868-.88 1.771.012 4.104-1.519 5.593-.736.45-1.705 3.351-.272 1.624.603-.895-1.191 3.298.151 1.677.751-1.989-.207.804.52 1.039.366-.552.339-3.005.492-1.008.017 1.959.78.009.484-.846-.027.652.705 2.05.608.492.186-1.309-.213-2.714.345-3.943 1.022-1.783 1.971-3.71 1.879-5.822.07-.961.641-2.055.544-.465.087 1.917.425 3.931-.426 5.731-.713 1.967-.512 4.059-.184 6.077.21 2.258.903 4.442.865 6.721-.166 1.672-.703 3.447.026 5.138.485 1.914 1.708 3.989.632 5.93-.576 1.558 1.779 1.182 2.61 1.142.025-1.536-.738-3.287-.906-4.93-.072-1.898.415-3.798-.052-5.681.43-3.086 1.079-6.17 1.168-9.3 1.128.201.323 2.54.813 3.594.172 1.919.651 3.796.852 5.706-.528 2.023.138 4.069-.102 6.103-.054 1.493-1.295 3.406-.662 4.634.982-.161 3.295.197 2.289-1.599-.956-2.122.596-4.237.939-6.325.732-1.811-.509-3.53-.108-5.332.042-2.109.726-4.143.867-6.251.411-2.085.335-4.251-.439-6.248-.711-1.817-.222-3.83-.184-5.725.228-.804.675 1.614.555 2.227.096 2.081 1.561 3.702 2.146 5.618-.064 1.228-.071 2.694.194 3.76l.42-.44c-.087 1.39.735.918.514-.207.077-2.142.428 2.948.742.604-.028-.926-.177-1.678.257-.397 1.447 1.732-.747-3.226.317-1.429 1.547 1.351-.023-1.632-.419-1.867z" fill="#eee"/></svg>