<svg xmlns="http://www.w3.org/2000/svg" viewBox="0 0 64 64"><g><path d="M21.228 44.32l21.914 2.522c2.102 1.579 4.197 3.113 6.621 6.621 8.214-2.833 10.066-10.645 9.932-17.026.328-5.374-3.821-24.542-27.677-24.538-18.693.167-26.021 8.713-26.24 19.178.019 11.017 7.798 12.129 15.45 13.243z" fill="#ecf0f1"/><path d="M35.563 18.031l-5.188 4.813-9.031.281-.5 7.219-1.375.656 10 14.25 13.688 1.594c2.102 1.579 4.17 3.117 6.594 6.625 4.976-1.716 7.627-5.273 8.906-9.219l-13.198-18.313-1.551.824-6.979-8.652z" color="#000" fill="#dfdfdf" overflow="visible" enable-background="accumulate"/><g color="#000"><path d="M35.615 17.567l-.219.188-4.906 4.906-9.219.219h-.156v.188l-.531 7.313v.156l.156.031 7.438 1.813 1.188 7.813.063.219.219-.094 8.031-3 .219-.094-.125-.188-2.969-4.563 10-5.219.406-.219-.406-.125-6.281-2.219-2.813-6.875-.094-.25zm-.156.656l2.719 6.656.031.094.094.031 5.969 2.094-9.844 5.125-.188.094.125.188 2.969 4.563-7.625 2.813-1.156-7.656-.031-.125-.125-.031-7.438-1.844.531-6.969 9.063-.219h.094l.031-.063 4.781-4.75z" style="text-indent:0;text-align:start;line-height:normal;text-transform:none;block-progression:tb;-inkscape-font-specification:Sans" fill="#2c3d4e" overflow="visible" enable-background="accumulate" font-family="Sans"/><path d="M29.439 21.836a1.875 1.875 0 1 1-3.75 0 1.875 1.875 0 1 1 3.75 0z" transform="matrix(.753 0 0 -.753 9.811 39.285)" fill="#3498db" overflow="visible" enable-background="accumulate"/><path d="M29.439 21.836a1.875 1.875 0 1 1-3.75 0 1.875 1.875 0 1 1 3.75 0z" transform="matrix(.753 0 0 -.753 .531 39.539)" fill="#2980b9" overflow="visible" enable-background="accumulate"/><path d="M29.439 21.836a1.875 1.875 0 1 1-3.75 0 1.875 1.875 0 1 1 3.75 0z" transform="matrix(.753 0 0 -.753 .032 46.826)" fill="#1abc9c" overflow="visible" enable-background="accumulate"/><path d="M29.439 21.836a1.875 1.875 0 1 1-3.75 0 1.875 1.875 0 1 1 3.75 0z" transform="matrix(.753 0 0 -.753 7.613 48.681)" fill="#34495e" overflow="visible" enable-background="accumulate"/><path d="M29.439 21.836a1.875 1.875 0 1 1-3.75 0 1.875 1.875 0 1 1 3.75 0z" transform="matrix(.753 0 0 -.753 8.823 56.585)" fill="#8e9b9c" overflow="visible" enable-background="accumulate"/><path d="M29.439 21.836a1.875 1.875 0 1 1-3.75 0 1.875 1.875 0 1 1 3.75 0z" transform="matrix(.753 0 0 -.753 16.888 53.52)" fill="#bdc3c7" overflow="visible" enable-background="accumulate"/><path d="M29.439 21.836a1.875 1.875 0 1 1-3.75 0 1.875 1.875 0 1 1 3.75 0z" transform="matrix(.753 0 0 -.753 13.743 48.762)" fill="#e67e22" overflow="visible" enable-background="accumulate"/><path d="M29.439 21.836a1.875 1.875 0 1 1-3.75 0 1.875 1.875 0 1 1 3.75 0z" transform="matrix(.753 0 0 -.753 23.985 43.52)" fill="#16a085" overflow="visible" enable-background="accumulate"/><path d="M29.439 21.836a1.875 1.875 0 1 1-3.75 0 1.875 1.875 0 1 1 3.75 0z" transform="matrix(.753 0 0 -.753 17.614 41.261)" fill="#d3540f" overflow="visible" enable-background="accumulate"/><path d="M29.439 21.836a1.875 1.875 0 1 1-3.75 0 1.875 1.875 0 1 1 3.75 0z" transform="matrix(.753 0 0 -.753 14.791 34.325)" fill="#c0392b" overflow="visible" enable-background="accumulate"/></g></g></svg>