<svg xmlns="http://www.w3.org/2000/svg" viewBox="0 0 84 50"><g><path d="M31.909 10.686l-3.531 3.531v.031l-6.813 6.813-7.094-7.063-3.531 3.531 7.125 7-.313.313-7.062 7.063 3.531 3.531 7.062-7.063.281-.281 7.063 7.094 3.531 3.531 3.531-3.531 6.813-6.813 7.063 7.063v.031l3.531 3.531 3.344-3.344 7.281-7.281 7.063 7.063 3.531-3.531-7.063-7.063 7.063-7.063-3.531-3.531-7.063 7.063-7.094-7.094-3.531-3.531-3.531 3.531-7.063 7.094-.031.031-7.031-7.094v-.031l-3.531-3.531zm0 7.094l7.094 7.031-.031.031-6.813 6.813-7.031-7.094 6.781-6.781zm21.188 0l7.094 7.063-7.125 7.031-7.063-7 .031-.031 7.063-7.063z" opacity=".15"/><path d="M66.546 24.158l-3.536-3.536 7.071-7.071 3.536 3.536zm-10.802 10.815l-3.7-3.446 7.449-7.385 3.541 3.541z" fill="#e74c3f"/><path d="M45.202 24.104l-3.494 3.505 7.167 7.141v.031l3.531 3.531 3.531-3.531-3.531-3.563z" fill="#95a5af"/><path d="M10.256 16.84l3.536-3.536 7.288 7.288-3.442 3.504z" fill="#3498df"/><path d="M24.188 23.594l-3.469 3.656 7.219 7.25 3.531 3.531 3.531-3.531 7.063-7.063-3.531-3.531-7.063 7.063-7.281-7.375z" fill="#2980bf"/><path d="M31.219 10.004l-3.531 3.531v.031l-7.094 7.063-3.531 3.531-7.063 7.063 3.531 3.531 7.062-7.063 3.531-3.531h.031l7.063-7.063 10.614 10.57 3.368-3.568-10.451-10.533v-.031z" fill="#1abc9f"/><path d="M45.202 24.104l-3.494 3.505 7.167 7.141v.031l3.531 3.531 3.531-3.531-3.531-3.563z" fill="#f39c1f"/><path d="M52.406 10l-3.531 3.531-7.063 7.094-3.531 3.531 3.531 3.531 3.531-3.531 7.063-7.063 7.094 7.063 3.531 3.531 7.063 7.063 3.531-3.531-7.063-7.063-3.531-3.531-7.094-7.094-3.531-3.531z" fill="#16a08f"/></g></svg>