<svg xmlns="http://www.w3.org/2000/svg" viewBox="0 0 64 64"><g><path d="M21.228 44.32l21.914 2.522c2.102 1.579 4.197 3.113 6.621 6.621 8.214-2.833 10.066-10.645 9.932-17.026.328-5.374-3.821-24.542-27.677-24.538-18.693.167-26.021 8.713-26.24 19.178.019 11.017 7.798 12.129 15.45 13.243z" fill="#ecf0f1"/></g><g><path d="M26.126 21.701l-2.078 2.078v.018l-4.009 4.009-4.175-4.156-2.078 2.078 4.193 4.12-.184.184-4.156 4.156 2.078 2.078 4.156-4.156.166-.166 4.156 4.175 2.078 2.078 2.078-2.078 4.009-4.009 4.156 4.156v.018l2.078 2.078 1.968-1.968 4.285-4.285 4.156 4.156 2.078-2.078-4.156-4.156 4.156-4.156-2.078-2.078-4.156 4.156-4.175-4.175-2.078-2.078-2.078 2.078-4.156 4.175-.018.018-4.138-4.175v-.018l-2.078-2.078zm0 4.175l4.175 4.138-.018.018-4.009 4.009-4.138-4.175 3.991-3.991zm12.469 0l4.175 4.156-4.193 4.138-4.156-4.12.018-.018 4.156-4.156z" fill="#bdc3c7"/><path d="M46.511 29.629l-2.081-2.081 4.162-4.162 2.081 2.081zm-6.358 6.365l-2.177-2.028 4.384-4.347 2.084 2.084z" fill="#e74c3f"/><path d="M33.95 29.598l-2.056 2.063 4.218 4.202v.018l2.078 2.078 2.078-2.078-2.078-2.097z" fill="#95a5af"/><path d="M13.383 25.334l2.082-2.082 4.293 4.293-2.028 2.064z" fill="#3498df"/><path d="M21.593 29.309l-2.043 2.154 4.252 4.27 2.08 2.08 2.08-2.08 4.16-4.16-2.08-2.08-4.16 4.16-4.289-4.344z" fill="#2980bf"/><path d="M25.73 21.308l-2.08 2.08v.018l-4.178 4.16-2.08 2.08-4.16 4.16 2.08 2.08 4.16-4.16 2.08-2.08h.018l4.16-4.16 6.252 6.226 1.984-2.102-6.156-6.204v-.018z" fill="#1abc9f"/><path d="M33.967 29.613l-2.058 2.065 4.221 4.206v.018l2.08 2.08 2.08-2.08-2.08-2.098z" fill="#f39c1f"/><path d="M38.21 21.305l-2.08 2.08-4.16 4.178-2.08 2.08 2.08 2.08 2.08-2.08 4.16-4.16 4.178 4.16 2.08 2.08 4.16 4.16 2.08-2.08-4.16-4.16-2.08-2.08-4.178-4.178-2.08-2.08z" fill="#16a08f"/></g></svg>