<?xml version="1.0" encoding="UTF-8" standalone="no"?>
<!-- Created with Inkscape (http://www.inkscape.org/) -->

<svg
   xmlns:dc="http://purl.org/dc/elements/1.1/"
   xmlns:cc="http://creativecommons.org/ns#"
   xmlns:rdf="http://www.w3.org/1999/02/22-rdf-syntax-ns#"
   xmlns:svg="http://www.w3.org/2000/svg"
   xmlns="http://www.w3.org/2000/svg"
   xmlns:sodipodi="http://sodipodi.sourceforge.net/DTD/sodipodi-0.dtd"
   xmlns:inkscape="http://www.inkscape.org/namespaces/inkscape"
   version="1.1"
   width="100%"
   height="100%"
   viewBox="0 0 64 64"
   id="svg4004"
   inkscape:version="0.48.2 r9819"
   sodipodi:docname="logo-brain-dna-variation.svg">
  <sodipodi:namedview
     pagecolor="#ffffff"
     bordercolor="#666666"
     borderopacity="1"
     objecttolerance="10"
     gridtolerance="10"
     guidetolerance="10"
     inkscape:pageopacity="0"
     inkscape:pageshadow="2"
     inkscape:window-width="1138"
     inkscape:window-height="660"
     id="namedview20"
     showgrid="false"
     inkscape:zoom="7.0246359"
     inkscape:cx="50.950695"
     inkscape:cy="36.867492"
     inkscape:window-x="0"
     inkscape:window-y="0"
     inkscape:window-maximized="0"
     inkscape:current-layer="svg4004"
     showguides="true"
     inkscape:guide-bbox="true" />
  <defs
     id="defs4006" />
  <metadata
     id="metadata4009">
    <rdf:RDF>
      <cc:Work
         rdf:about="">
        <dc:format>image/svg+xml</dc:format>
        <dc:type
           rdf:resource="http://purl.org/dc/dcmitype/StillImage" />
        <dc:title />
      </cc:Work>
    </rdf:RDF>
  </metadata>
  <g
     id="layer1">
    <path
       d="m 21.228316,44.320053 21.913726,2.522443 c 2.102482,1.579203 4.197428,3.113192 6.621413,6.621414 C 57.977053,50.631083 59.829231,42.818816 59.695578,36.437417 60.023789,31.063845 55.874687,11.895723 32.018447,11.899723 13.325166,12.067202 5.9971565,20.612798 5.7783505,31.077225 c 0.01927,11.017107 7.7975625,12.12919 15.4499655,13.242828 z"
       id="path4109"
       style="fill:#ecf0f1;fill-opacity:1;stroke:none" />
    <g
       transform="translate(-1.8540162,-0.37080323)"
       id="g4700" />
  </g>
  <path
     style="color:#000000;fill:#e3e3e3;fill-opacity:1;fill-rule:nonzero;stroke:none;stroke-width:0.50000000000000000;marker:none;visibility:visible;display:inline;overflow:visible;enable-background:accumulate"
     d="M 25.71875 21.3125 L 17.625 29.40625 L 13.25 33.78125 L 24.09375 44.65625 L 43.15625 46.84375 C 45.258732 48.422953 47.326015 49.960528 49.75 53.46875 C 57.963596 50.635923 59.821154 42.818899 59.6875 36.4375 C 59.720505 35.89714 59.698032 35.192071 59.625 34.40625 L 48.59375 23.40625 L 44.46875 27.53125 L 38.1875 21.3125 L 31.9375 27.5625 L 25.71875 21.3125 z "
     id="rect3011" />
  <g
     transform="matrix(0.58852571,0,0,0.58852571,12.980784,10.773302)"
     id="layer1-7">
    <path
       inkscape:connector-curvature="0"
       d="m 56.973126,32.039708 -3.535534,-3.535534 7.071067,-7.071068 3.535534,3.535534 z M 46.170644,42.8552 42.47088,39.408834 l 7.448793,-7.385436 3.54139,3.54139 z"
       id="rect4493-5-3-06-9"
       style="fill:#95a5a6;fill-opacity:1" />
    <path
       inkscape:connector-curvature="0"
       d="m 35.62927,31.986146 -3.494032,3.505231 7.166575,7.140556 0,0.03125 3.53125,3.53125 3.53125,-3.53125 -3.53125,-3.5625 z"
       id="rect5014-4-4-9"
       style="fill:#95a5af" />
    <g
       id="g3871">
      <g
         id="g3765" />
    </g>
    <path
       inkscape:connector-curvature="0"
       d="m 0.68315773,24.722171 3.53553387,-3.535534 7.2883294,7.28833 -3.4424214,3.504496 z"
       id="path3913"
       style="fill:#3498df" />
    <path
       inkscape:connector-curvature="0"
       d="M 24.1875,23.59375 20.71875,27.25 27.9375,34.5 31.46875,38.03125 35,34.5 l 7.0625,-7.0625 -3.53125,-3.53125 -7.0625,7.0625 -7.28125,-7.375 z"
       transform="translate(-9.5731866,7.881933)"
       id="path3911"
       style="fill:#2980bf" />
    <path
       inkscape:connector-curvature="0"
       d="m 21.645563,17.885839 -3.53125,3.53125 0,0.03125 -7.09375,7.0625 -3.5312496,3.53125 -7.06250002,7.0625 3.53125002,3.53125 7.0624996,-7.0625 3.53125,-3.53125 0.03125,0 7.0625,-7.0625 10.614187,10.569771 3.367954,-3.568482 -10.450891,-10.532539 0,-0.03125 z"
       id="rect4493-2-5-07"
       style="fill:#1abc9f" />
    <path
       inkscape:connector-curvature="0"
       d="m 35.62927,31.986146 -3.494032,3.505231 7.166575,7.140556 0,0.03125 3.53125,3.53125 3.53125,-3.53125 -3.53125,-3.5625 z"
       id="rect5014-4-4-9-0"
       style="fill:#7f8c8d;fill-opacity:1" />
    <path
       inkscape:connector-curvature="0"
       d="m 42.833063,17.881933 -3.53125,3.53125 -7.0625,7.09375 -3.53125,3.53125 3.53125,3.53125 3.53125,-3.53125 7.0625,-7.0625 7.09375,7.0625 3.53125,3.53125 7.0625,7.0625 3.53125,-3.53125 -7.0625,-7.0625 -3.53125,-3.53125 -7.09375,-7.09375 -3.53125,-3.53125 z"
       id="rect5014-6-4"
       style="fill:#16a08f" />
  </g>
</svg>
