<svg xmlns="http://www.w3.org/2000/svg" viewBox="0 0 64 64"><g><path d="M21.228 44.32l21.914 2.522c2.102 1.579 4.197 3.113 6.621 6.621 8.214-2.833 10.066-10.645 9.932-17.026.328-5.374-3.821-24.542-27.677-24.538-18.693.167-26.021 8.713-26.24 19.178.019 11.017 7.798 12.129 15.45 13.243z" fill="#ecf0f1"/></g><path d="M25.719 21.313l-8.094 8.094-4.375 4.375 10.844 10.875 19.063 2.188c2.102 1.579 4.17 3.117 6.594 6.625 8.214-2.833 10.071-10.65 9.938-17.031.033-.54.011-1.245-.063-2.031l-11.031-11-4.125 4.125-6.281-6.219-6.25 6.25-6.219-6.25z" color="#000" fill="#e3e3e3" overflow="visible" enable-background="accumulate"/><g><path d="M46.511 29.629l-2.081-2.081 4.162-4.162 2.081 2.081zm-6.358 6.365l-2.177-2.028 4.384-4.347 2.084 2.084z" fill="#95a5a6"/><path d="M33.95 29.598l-2.056 2.063 4.218 4.202v.018l2.078 2.078 2.078-2.078-2.078-2.097z" fill="#95a5af"/><path d="M13.383 25.334l2.082-2.082 4.293 4.293-2.028 2.064z" fill="#3498df"/><path d="M21.593 29.309l-2.043 2.154 4.252 4.27 2.08 2.08 2.08-2.08 4.16-4.16-2.08-2.08-4.16 4.16-4.289-4.344z" fill="#2980bf"/><path d="M25.73 21.308l-2.08 2.08v.018l-4.178 4.16-2.08 2.08-4.16 4.16 2.08 2.08 4.16-4.16 2.08-2.08h.018l4.16-4.16 6.252 6.226 1.984-2.102-6.156-6.204v-.018z" fill="#1abc9f"/><path d="M33.967 29.613l-2.058 2.065 4.221 4.206v.018l2.08 2.08 2.08-2.08-2.08-2.098z" fill="#7f8c8d"/><path d="M38.21 21.305l-2.08 2.08-4.16 4.178-2.08 2.08 2.08 2.08 2.08-2.08 4.16-4.16 4.178 4.16 2.08 2.08 4.16 4.16 2.08-2.08-4.16-4.16-2.08-2.08-4.178-4.178-2.08-2.08z" fill="#16a08f"/></g></svg>