<svg xmlns="http://www.w3.org/2000/svg" width="64" height="64" viewBox="0 0 64 64"><g><path fill="#2980B9" d="M29.194 49.195l.287-.023c-.124.037-.262.031-.387.004l-.169-.047-.169-.076-.166-.102-.167-.127-.165-.152-.164-.174-.164-.195-.163-.223-.162-.24-.161-.262-.161-.285-.158-.303-.161-.322-.158-.34-.155-.359-.155-.377-.155-.389-.155-.41-.152-.42-.154-.439-.151-.451-.15-.465-.149-.479-.15-.488-.149-.504-.146-.514-.147-.523-.144-.529-.146-.541-.144-.549-.143-.557-.144-.562-.139-.568-.141-.578-.139-.578-.138-.584-.136-.59-.136-.592-.136-.594-.137-.596-.133-.597-.134-.598-.13-.599-.131-.598-.13-.593-.13-.593-.127-.592-.127-.587-.125-.583-.127-.578-.125-.575-.123-.567-.122-.562-.123-.554-.119-.545-.12-.538-.119-.528-.12-.519-.116-.508-.114-.498-.117-.485-.113-.473-.111-.46-.113-.448-.111-.433-.108-.418-.11-.403-.108-.385-.108-.369-.105-.353-.102-.334-.106-.314-.104-.296-.101-.276-.103-.255-.098-.233-.099-.213-.1-.189-.096-.166-.096-.143-.093-.119-.094-.092-.095-.066-.091-.042-.09-.013h11.659c.345 0 1.325.825 2.574 6.538 1.525 6.99 4.936 27.856 9.006 27.856h-11.987"/><path fill="#2980B9" d="M40.771 14.801h11.657c.347 0 1.326.825 2.572 6.538 1.525 6.99 4.937 27.856 9.007 27.856h-11.986c-4.834-.564-8.675-34.393-11.25-34.394z"/><path fill="#2980B9" d="M-.009 34.004c1.767 7.742 3.768 14.938 5.976 15.193h11.982"/><path fill="#29A7E8" d="M29.569 14.801h-11.657c-.346 0-1.326.825-2.572 6.538-1.526 6.99-4.937 27.856-9.008 27.856h11.987c4.835-.564 8.675-34.393 11.25-34.394z"/><path fill="#29A7E8" d="M52.473 14.801h-11.658c-.344 0-1.328.825-2.572 6.538-1.525 6.99-4.936 27.856-9.007 27.856h11.986c4.837-.564 8.678-34.393 11.251-34.394z"/><path fill="#99c" d="M29.236 49.195"/><path fill="#ECF0F1" d="M30.695 48.482l.02-.018-.02.021v-.003z"/><path fill="#ECF0F1" d="M7.756 48.482l.021-.018-.021.021v-.003z"/></g></svg>