<svg xmlns="http://www.w3.org/2000/svg" viewBox="0 0 450 450"><path d="M133.199 106.343c1.079 20.741-26.462 33.729-41.781 19.706-16.579-12.297-9.304-41.599 11.097-44.724 15.316-3.563 31.096 9.293 30.684 25.018z" stroke="#eee" stroke-width="7" stroke-miterlimit="10" fill="none"/><path d="M84.583 224.899c1.079 20.741-26.462 33.729-41.781 19.706-16.579-12.297-9.304-41.599 11.097-44.724 15.316-3.563 31.096 9.293 30.684 25.018z" stroke="#eee" stroke-width="7" stroke-miterlimit="10" fill="none"/><path d="M133.199 342.274c1.079 20.741-26.462 33.729-41.781 19.706-16.579-12.297-9.304-41.599 11.097-44.724 15.316-3.563 31.096 9.293 30.684 25.018z" stroke="#eee" stroke-width="7" stroke-miterlimit="10" fill="none"/><path d="M250.575 390.891c1.079 20.741-26.462 33.729-41.781 19.706-16.579-12.297-9.304-41.599 11.097-44.724 15.316-3.563 31.096 9.293 30.684 25.018z" stroke="#eee" stroke-width="7" stroke-miterlimit="10" fill="none"/><path d="M365.493 339.817c1.079 20.741-26.462 33.729-41.781 19.706-16.579-12.297-9.304-41.599 11.097-44.724 15.316-3.563 31.096 9.293 30.684 25.018z" stroke="#eee" stroke-width="7" stroke-miterlimit="10" fill="none"/><path d="M416.567 224.899c1.079 20.741-26.462 33.729-41.781 19.706-16.579-12.297-9.304-41.599 11.097-44.724 15.316-3.563 31.096 9.293 30.684 25.018z" stroke="#eee" stroke-width="7" stroke-miterlimit="10" fill="none"/><path d="M367.951 107.524c1.079 20.741-26.462 33.729-41.781 19.706-16.579-12.297-9.304-41.599 11.097-44.724 15.316-3.563 31.096 9.293 30.684 25.018z" stroke="#eee" stroke-width="7" stroke-miterlimit="10" fill="none"/><path d="M250.575 58.907c1.079 20.741-26.462 33.729-41.781 19.706-16.579-12.297-9.304-41.599 11.097-44.724 15.316-3.563 31.096 9.293 30.684 25.018z" fill="#eee" stroke="#eee" stroke-width="7" stroke-miterlimit="10"/><path d="M124.543 124.79c65.789 65.597 131.656 131.17 197.652 196.7" stroke="#eee" stroke-width="7" stroke-miterlimit="10" fill="none"/><path d="M225.038 365v-280.769" stroke="#eee" stroke-width="7" stroke-miterlimit="10" fill="none"/><path d="M85.349 224.899h280.227" stroke="#eee" stroke-width="7" stroke-miterlimit="10" fill="none"/><path d="M125.973 323.964l198.607-198.607" stroke="#eee" stroke-width="7" stroke-miterlimit="10" fill="none"/></svg>