<?xml version="1.0" encoding="UTF-8" standalone="no"?>
<!-- Created with Inkscape (http://www.inkscape.org/) -->

<svg
   xmlns:dc="http://purl.org/dc/elements/1.1/"
   xmlns:cc="http://creativecommons.org/ns#"
   xmlns:rdf="http://www.w3.org/1999/02/22-rdf-syntax-ns#"
   xmlns:svg="http://www.w3.org/2000/svg"
   xmlns="http://www.w3.org/2000/svg"
   xmlns:sodipodi="http://sodipodi.sourceforge.net/DTD/sodipodi-0.dtd"
   xmlns:inkscape="http://www.inkscape.org/namespaces/inkscape"
   version="1.1"
   width="100%"
   height="100%"
   viewBox="0 0 64 64"
   id="svg2985"
   inkscape:version="0.48.2 r9819"
   sodipodi:docname="icon-heart.svg">
  <sodipodi:namedview
     pagecolor="#ffffff"
     bordercolor="#666666"
     borderopacity="1"
     objecttolerance="10"
     gridtolerance="10"
     guidetolerance="10"
     inkscape:pageopacity="0"
     inkscape:pageshadow="2"
     inkscape:window-width="1280"
     inkscape:window-height="721"
     id="namedview10"
     showgrid="false"
     inkscape:zoom="6.1396499"
     inkscape:cx="12.113914"
     inkscape:cy="26.711864"
     inkscape:window-x="0"
     inkscape:window-y="0"
     inkscape:window-maximized="0"
     inkscape:current-layer="svg2985" />
  <defs
     id="defs2987" />
  <metadata
     id="metadata2990">
    <rdf:RDF>
      <cc:Work
         rdf:about="">
        <dc:format>image/svg+xml</dc:format>
        <dc:type
           rdf:resource="http://purl.org/dc/dcmitype/StillImage" />
        <dc:title />
      </cc:Work>
    </rdf:RDF>
  </metadata>
  <g
     id="layer1" />
  <g
     id="layer2" />
  <g
     id="layer4">
    <path
       style="font-size:medium;font-style:normal;font-variant:normal;font-weight:normal;font-stretch:normal;text-indent:0;text-align:start;text-decoration:none;line-height:normal;letter-spacing:normal;word-spacing:normal;text-transform:none;direction:ltr;block-progression:tb;writing-mode:lr-tb;text-anchor:start;baseline-shift:baseline;color:#000000;fill:#eeeeee;fill-opacity:1;stroke:none;stroke-width:1.10000002;marker:none;visibility:visible;display:inline;overflow:visible;enable-background:accumulate;font-family:Sans;-inkscape-font-specification:Sans"
       d="m 46.65625,26.90625 a 0.55005501,0.55005501 0 0 0 -0.0625,0.03125 0.55005501,0.55005501 0 0 0 -0.0625,0.03125 0.55005501,0.55005501 0 0 0 -0.125,0.0625 0.55005501,0.55005501 0 0 0 -0.125,0.15625 l -6.1875,7.1875 a 0.55419212,0.55419212 0 1 0 0.84375,0.71875 l 5.28125,-6.15625 0,12.5 a 0.55005501,0.55005501 0 1 0 1.09375,0 l 0,-12.5 5.28125,6.15625 A 0.55419212,0.55419212 0 1 0 53.4375,34.375 L 47.21875,27.15625 A 0.55005501,0.55005501 0 0 0 47.1875,27.125 l 0,-0.03125 a 0.55005501,0.55005501 0 0 0 -0.0625,-0.0625 0.55005501,0.55005501 0 0 0 -0.03125,0 0.55005501,0.55005501 0 0 0 -0.125,-0.09375 0.55005501,0.55005501 0 0 0 -0.03125,0 0.55005501,0.55005501 0 0 0 -0.0625,-0.03125 0.55005501,0.55005501 0 0 0 -0.03125,0 0.55005501,0.55005501 0 0 0 -0.03125,0 0.55005501,0.55005501 0 0 0 -0.0625,0 0.55005501,0.55005501 0 0 0 -0.03125,0 0.55005501,0.55005501 0 0 0 -0.0625,0 z"
       id="path2992"
       inkscape:connector-curvature="0" />
    <path
       style="fill:none;stroke:#eeeeee;stroke-width:1.10000002;stroke-linecap:round;stroke-linejoin:round;stroke-miterlimit:4;stroke-opacity:1;stroke-dasharray:none"
       d="m 35.05532,32.488293 c -1.454955,9.33e-4 -2.909909,0.0019 -4.364864,0.0028 -1.845328,3.476244 -3.690655,6.952487 -5.535983,10.428731 -2.491957,-5.751896 -4.983913,-11.503791 -7.47587,-17.255687 -2.482817,3.639672 -4.879256,7.192966 -7.362073,10.832638"
       id="path2990" />
    <path
       style="fill:none;stroke:#eeeeee;stroke-width:1.10000002;stroke-linecap:round;stroke-linejoin:round;stroke-miterlimit:4;stroke-opacity:1;stroke-dasharray:none"
       d="m 58.46537,34.671875 c 0.173503,6.119512 -5.306004,11.741903 -11.427802,11.726743 -6.1138,0.331655 -11.875764,-5.002367 -12.018081,-11.123089 -0.48858,-6.104074 4.69701,-12.001205 10.812755,-12.300023 6.143669,-0.651606 12.212611,4.477591 12.586786,10.646488 0.03096,0.349046 0.04634,0.699474 0.04634,1.049881 z"
       id="path2988"
       inkscape:connector-curvature="0" />
    <path
       style="fill:none;stroke:#eeeeee;stroke-width:1.10000002;stroke-linecap:round;stroke-linejoin:round;stroke-miterlimit:4;stroke-opacity:1;stroke-dasharray:none"
       d="m 42.375,9.21875 c -4.226896,0.1716667 -7.966689,2.855925 -10.3125,6.25 C 29.290774,11.287505 24.023627,8.4846532 18.997136,9.8561634 11.804022,11.670591 7.4440368,19.34514 7.7299639,26.466767 7.9324124,35.242714 13.448256,42.900787 19.819222,48.493391 23.559205,51.793152 27.722579,54.585835 32.0625,57.03125 37.135087,54.00398 41.973145,50.529642 46.1875,46.375 39.905548,46.250857 34.532718,40.346383 35.015319,34.083791 35.188574,27.898829 40.952418,22.592082 47.133329,22.943679 50.895241,23.033872 54.521518,25.095427 56.5625,28.25 57.760761,21.393017 54.732181,13.541066 48.243336,10.4407 46.426403,9.5623037 44.394321,9.1154972 42.375,9.21875 z"
       id="path4184-4" />
  </g>
  <g
     id="layer3" />
</svg>
