<?xml version="1.0" encoding="UTF-8" standalone="no"?>
<!-- Created with Inkscape (http://www.inkscape.org/) -->

<svg
   xmlns:dc="http://purl.org/dc/elements/1.1/"
   xmlns:cc="http://creativecommons.org/ns#"
   xmlns:rdf="http://www.w3.org/1999/02/22-rdf-syntax-ns#"
   xmlns:svg="http://www.w3.org/2000/svg"
   xmlns="http://www.w3.org/2000/svg"
   version="1.1"
   width="100%"
   height="100%"
   viewBox="0 0 64 64"
   id="svg4004">
  <defs
     id="defs4006" />
  <metadata
     id="metadata4009">
    <rdf:RDF>
      <cc:Work
         rdf:about="">
        <dc:format>image/svg+xml</dc:format>
        <dc:type
           rdf:resource="http://purl.org/dc/dcmitype/StillImage" />
        <dc:title></dc:title>
      </cc:Work>
    </rdf:RDF>
  </metadata>
  <g
     id="layer1">
    <path
       d="m 21.228316,44.320053 21.913726,2.522443 c 2.102482,1.579203 4.197428,3.113192 6.621413,6.621414 C 57.977053,50.631083 59.829231,42.818816 59.695578,36.437417 60.023789,31.063845 55.874687,11.895723 32.018447,11.899723 13.325166,12.067202 5.9971565,20.612798 5.7783505,31.077225 c 0.01927,11.017107 7.7975625,12.12919 15.4499655,13.242828 z"
       id="path4109"
       style="fill:#ecf0f1;fill-opacity:1;stroke:none" />
    <path
       d="m 35.5625,18.03125 -5.1875,4.8125 -9.03125,0.28125 -0.5,7.21875 -1.375,0.65625 10,14.25 13.6875,1.59375 c 2.102482,1.579203 4.169765,3.116778 6.59375,6.625 4.975544,-1.716039 7.626779,-5.273189 8.90625,-9.21875 l -13.197865,-18.312808 -1.55121,0.823944 -6.979115,-8.65224 z"
       id="rect4713-6"
       style="color:#000000;fill:#dfdfdf;fill-opacity:1;fill-rule:nonzero;stroke:none;stroke-width:0.5;marker:none;visibility:visible;display:inline;overflow:visible;enable-background:accumulate" />
    <g
       transform="translate(-1.8540162,-0.37080323)"
       id="g4700">
      <path
         d="M 37.46875,17.9375 37.25,18.125 32.34375,23.03125 23.125,23.25 l -0.15625,0 0,0.1875 -0.53125,7.3125 0,0.15625 0.15625,0.03125 7.4375,1.8125 1.1875,7.8125 0.0625,0.21875 0.21875,-0.09375 8.03125,-3 0.21875,-0.09375 -0.125,-0.1875 -2.96875,-4.5625 10,-5.21875 0.40625,-0.21875 -0.40625,-0.125 -6.28125,-2.21875 -2.8125,-6.875 -0.09375,-0.25 z m -0.15625,0.65625 2.71875,6.65625 0.03125,0.09375 0.09375,0.03125 5.96875,2.09375 -9.84375,5.125 -0.1875,0.09375 0.125,0.1875 2.96875,4.5625 -7.625,2.8125 -1.15625,-7.65625 -0.03125,-0.125 -0.125,-0.03125 -7.4375,-1.84375 0.53125,-6.96875 9.0625,-0.21875 0.09375,0 0.03125,-0.0625 4.78125,-4.75 z"
         id="path4024"
         style="font-size:medium;font-style:normal;font-variant:normal;font-weight:normal;font-stretch:normal;text-indent:0;text-align:start;text-decoration:none;line-height:normal;letter-spacing:normal;word-spacing:normal;text-transform:none;direction:ltr;block-progression:tb;writing-mode:lr-tb;text-anchor:start;baseline-shift:baseline;color:#000000;fill:#2c3d4e;fill-opacity:1;stroke:none;stroke-width:0.37634769;marker:none;visibility:visible;display:inline;overflow:visible;enable-background:accumulate;font-family:Sans;-inkscape-font-specification:Sans" />
      <path
         d="m 29.439449,21.836494 a 1.8751241,1.8751241 0 1 1 -3.750248,0 1.8751241,1.8751241 0 1 1 3.750248,0 z"
         transform="matrix(0.75269538,0,0,-0.75269538,11.664781,39.656339)"
         id="path3130"
         style="color:#000000;fill:#3498db;fill-opacity:1;fill-rule:nonzero;stroke:none;stroke-width:1.60000002;marker:none;visibility:visible;display:inline;overflow:visible;enable-background:accumulate" />
      <path
         d="m 29.439449,21.836494 a 1.8751241,1.8751241 0 1 1 -3.750248,0 1.8751241,1.8751241 0 1 1 3.750248,0 z"
         transform="matrix(0.75269538,0,0,-0.75269538,2.3846708,39.910229)"
         id="path3130-0"
         style="color:#000000;fill:#2980b9;fill-opacity:1;fill-rule:nonzero;stroke:none;stroke-width:1.60000002;marker:none;visibility:visible;display:inline;overflow:visible;enable-background:accumulate" />
      <path
         d="m 29.439449,21.836494 a 1.8751241,1.8751241 0 1 1 -3.750248,0 1.8751241,1.8751241 0 1 1 3.750248,0 z"
         transform="matrix(0.75269538,0,0,-0.75269538,1.8858145,47.197233)"
         id="path3130-1"
         style="color:#000000;fill:#1abc9c;fill-opacity:1;fill-rule:nonzero;stroke:none;stroke-width:1.60000002;marker:none;visibility:visible;display:inline;overflow:visible;enable-background:accumulate" />
      <path
         d="m 29.439449,21.836494 a 1.8751241,1.8751241 0 1 1 -3.750248,0 1.8751241,1.8751241 0 1 1 3.750248,0 z"
         transform="matrix(0.75269538,0,0,-0.75269538,9.4670332,49.052213)"
         id="path3130-8"
         style="color:#000000;fill:#34495e;fill-opacity:1;fill-rule:nonzero;stroke:none;stroke-width:1.60000002;marker:none;visibility:visible;display:inline;overflow:visible;enable-background:accumulate" />
      <path
         d="m 29.439449,21.836494 a 1.8751241,1.8751241 0 1 1 -3.750248,0 1.8751241,1.8751241 0 1 1 3.750248,0 z"
         transform="matrix(0.75269538,0,0,-0.75269538,10.676802,56.956036)"
         id="path3130-9"
         style="color:#000000;fill:#8e9b9c;fill-opacity:1;fill-rule:nonzero;stroke:none;stroke-width:1.60000002;marker:none;visibility:visible;display:inline;overflow:visible;enable-background:accumulate" />
      <path
         d="m 29.439449,21.836494 a 1.8751241,1.8751241 0 1 1 -3.750248,0 1.8751241,1.8751241 0 1 1 3.750248,0 z"
         transform="matrix(0.75269538,0,0,-0.75269538,18.741929,53.891289)"
         id="path3130-5"
         style="color:#000000;fill:#bdc3c7;fill-opacity:1;fill-rule:nonzero;stroke:none;stroke-width:1.60000002;marker:none;visibility:visible;display:inline;overflow:visible;enable-background:accumulate" />
      <path
         d="m 29.439449,21.836494 a 1.8751241,1.8751241 0 1 1 -3.750248,0 1.8751241,1.8751241 0 1 1 3.750248,0 z"
         transform="matrix(0.75269538,0,0,-0.75269538,15.596529,49.132864)"
         id="path3130-7"
         style="color:#000000;fill:#e67e22;fill-opacity:1;fill-rule:nonzero;stroke:none;stroke-width:1.60000002;marker:none;visibility:visible;display:inline;overflow:visible;enable-background:accumulate" />
      <path
         d="m 29.439449,21.836494 a 1.8751241,1.8751241 0 1 1 -3.750248,0 1.8751241,1.8751241 0 1 1 3.750248,0 z"
         transform="matrix(0.75269538,0,0,-0.75269538,25.839241,43.890531)"
         id="path3130-3"
         style="color:#000000;fill:#16a085;fill-opacity:1;fill-rule:nonzero;stroke:none;stroke-width:1.60000002;marker:none;visibility:visible;display:inline;overflow:visible;enable-background:accumulate" />
      <path
         d="m 29.439449,21.836494 a 1.8751241,1.8751241 0 1 1 -3.750248,0 1.8751241,1.8751241 0 1 1 3.750248,0 z"
         transform="matrix(0.75269538,0,0,-0.75269538,19.467791,41.632296)"
         id="path3130-4"
         style="color:#000000;fill:#d3540f;fill-opacity:1;fill-rule:nonzero;stroke:none;stroke-width:1.60000002;marker:none;visibility:visible;display:inline;overflow:visible;enable-background:accumulate" />
      <path
         d="m 29.439449,21.836494 a 1.8751241,1.8751241 0 1 1 -3.750248,0 1.8751241,1.8751241 0 1 1 3.750248,0 z"
         transform="matrix(0.75269538,0,0,-0.75269538,16.644996,34.696287)"
         id="path3130-30"
         style="color:#000000;fill:#c0392b;fill-opacity:1;fill-rule:nonzero;stroke:none;stroke-width:1.60000002;marker:none;visibility:visible;display:inline;overflow:visible;enable-background:accumulate" />
    </g>
  </g>
</svg>
