<?xml version="1.0" encoding="UTF-8" standalone="no"?>
<!-- Created with Inkscape (http://www.inkscape.org/) -->

<svg
   xmlns:dc="http://purl.org/dc/elements/1.1/"
   xmlns:cc="http://creativecommons.org/ns#"
   xmlns:rdf="http://www.w3.org/1999/02/22-rdf-syntax-ns#"
   xmlns:svg="http://www.w3.org/2000/svg"
   xmlns="http://www.w3.org/2000/svg"
   version="1.1"
   width="100%"
   height="100%"
   viewBox="0 0 84 50"
   id="logo-mindlife">
  <defs
     id="defs4487" />
  <metadata
     id="metadata4490">
    <rdf:RDF>
      <cc:Work
         rdf:about="">
        <dc:format>image/svg+xml</dc:format>
        <dc:type
           rdf:resource="http://purl.org/dc/dcmitype/StillImage" />
        <dc:title></dc:title>
      </cc:Work>
    </rdf:RDF>
  </metadata>
  <g
     transform="translate(9.5731866,-7.881933)"
     id="layer1">
    <path
       d="m 22.335517,18.568094 -3.53125,3.53125 0,0.03125 -6.8125,6.8125 -7.0937489,-7.0625 -3.53125,3.53125 7.125,7 -0.3125,0.3125 -7.0624999,7.0625 3.5312499,3.53125 7.0624989,-7.0625 0.28125,-0.28125 7.0625,7.09375 3.53125,3.53125 3.53125,-3.53125 6.8125,-6.8125 7.0625,7.0625 0,0.03125 3.53125,3.53125 3.34375,-3.34375 7.28125,-7.28125 7.0625,7.0625 3.53125,-3.53125 -7.0625,-7.0625 7.0625,-7.0625 -3.53125,-3.53125 -7.0625,7.0625 -7.09375,-7.09375 -3.53125,-3.53125 -3.53125,3.53125 -7.0625,7.09375 -0.03125,0.03125 -7.03125,-7.09375 0,-0.03125 -3.53125,-3.53125 z m 0,7.09375 7.09375,7.03125 -0.03125,0.03125 -6.8125,6.8125 -7.03125,-7.09375 6.78125,-6.78125 z m 21.1875,0 7.09375,7.0625 -7.125,7.03125 -7.0625,-7 0.03125,-0.03125 7.0625,-7.0625 z"
       id="rect4493-5-3-06-9-2"
       style="opacity:0.15;fill:#000000" />
    <path
       d="m 56.973126,32.039708 -3.535534,-3.535534 7.071067,-7.071068 3.535534,3.535534 z M 46.170644,42.8552 42.47088,39.408834 l 7.448793,-7.385436 3.54139,3.54139 z"
       id="rect4493-5-3-06-9"
       style="fill:#e74c3f" />
    <path
       d="m 35.62927,31.986146 -3.494032,3.505231 7.166575,7.140556 0,0.03125 3.53125,3.53125 3.53125,-3.53125 -3.53125,-3.5625 z"
       id="rect5014-4-4-9"
       style="fill:#95a5af" />
    <g
       id="g3871">
      <g
         id="g3765" />
    </g>
    <path
       d="m 0.68315773,24.722171 3.53553387,-3.535534 7.2883294,7.28833 -3.4424214,3.504496 z"
       id="path3913"
       style="fill:#3498df" />
    <path
       d="M 24.1875,23.59375 20.71875,27.25 27.9375,34.5 31.46875,38.03125 35,34.5 l 7.0625,-7.0625 -3.53125,-3.53125 -7.0625,7.0625 -7.28125,-7.375 z"
       transform="translate(-9.5731866,7.881933)"
       id="path3911"
       style="fill:#2980bf" />
    <path
       d="m 21.645563,17.885839 -3.53125,3.53125 0,0.03125 -7.09375,7.0625 -3.5312496,3.53125 -7.06250002,7.0625 3.53125002,3.53125 7.0624996,-7.0625 3.53125,-3.53125 0.03125,0 7.0625,-7.0625 10.614187,10.569771 3.367954,-3.568482 -10.450891,-10.532539 0,-0.03125 z"
       id="rect4493-2-5-07"
       style="fill:#1abc9f" />
    <path
       d="m 35.62927,31.986146 -3.494032,3.505231 7.166575,7.140556 0,0.03125 3.53125,3.53125 3.53125,-3.53125 -3.53125,-3.5625 z"
       id="rect5014-4-4-9-0"
       style="fill:#f39c1f" />
    <path
       d="m 42.833063,17.881933 -3.53125,3.53125 -7.0625,7.09375 -3.53125,3.53125 3.53125,3.53125 3.53125,-3.53125 7.0625,-7.0625 7.09375,7.0625 3.53125,3.53125 7.0625,7.0625 3.53125,-3.53125 -7.0625,-7.0625 -3.53125,-3.53125 -7.09375,-7.09375 -3.53125,-3.53125 z"
       id="rect5014-6-4"
       style="fill:#16a08f" />
  </g>
</svg>
