<svg xmlns="http://www.w3.org/2000/svg" width="64" height="64"><defs><linearGradient x1="535.629" y1="998.139" x2="535.629" y2="998.139" id="a" gradientUnits="userSpaceOnUse" gradientTransform="matrix(.178 0 0 -.178 -42.503 212.506)"><stop offset="0" stop-color="#ccc"/><stop offset=".488" stop-color="#e6e6e6"/><stop offset="1" stop-color="#ccc"/></linearGradient></defs><g><path d="M49.092 20.336h-7.29c-.216 0-.829.516-1.609 4.088-.954 4.371-3.086 17.42-5.632 17.42h7.495c3.025-.351 5.426-21.507 7.036-21.508z" fill="#ecf0f1"/><path d="M20.273 41.844l.178-.014c-.077.022-.163.019-.241.003l-.105-.032-.105-.048-.105-.063-.104-.079-.103-.094-.103-.109-.102-.123-.102-.137-.102-.151-.1-.164-.1-.177-.1-.189-.099-.202-.099-.213-.098-.224-.098-.235-.097-.245-.097-.255-.096-.264-.095-.274-.095-.283-.094-.291-.094-.299-.093-.306-.093-.313-.092-.32-.092-.327-.091-.333-.09-.338-.09-.343-.09-.348-.089-.352-.088-.356-.088-.36-.087-.363-.086-.366-.086-.368-.085-.37-.085-.371-.084-.373-.084-.373-.083-.374-.082-.374-.082-.373-.081-.372-.081-.371-.08-.369-.079-.367-.079-.365-.078-.362-.078-.359-.077-.355-.077-.351-.076-.346-.076-.341-.074-.336-.074-.33-.074-.324-.073-.318-.072-.311-.072-.304-.071-.296-.07-.288-.07-.279-.069-.271-.069-.261-.069-.252-.067-.241-.067-.231-.066-.22-.066-.209-.065-.197-.064-.185-.064-.173-.063-.16-.063-.146-.062-.133-.061-.119-.061-.104-.06-.089-.059-.074-.059-.058-.058-.042-.058-.026-.056-.009h7.291c.216 0 .829.516 1.609 4.088.953 4.371 3.086 17.42 5.632 17.42h-7.496" fill="#2980b9"/><path d="M27.511 20.336h7.29c.216 0 .829.516 1.609 4.088.954 4.371 3.087 17.42 5.632 17.42h-7.495c-3.024-.351-5.426-21.507-7.036-21.508z" fill="#2980b9"/><path d="M2.01 32.345c1.105 4.84 2.356 9.34 3.737 9.5h7.494" fill="#2980b9"/><path d="M20.506 20.336h-7.291c-.216 0-.829.516-1.609 4.088-.954 4.371-3.086 17.42-5.632 17.42h7.496c3.024-.351 5.426-21.507 7.036-21.508z" fill="#29a7e8"/><path d="M52.905 34.715" fill="url(#a)"/><path d="M48.831 41.844h7.495c3.024-.351 4.98-12.221 6.028-15.588" fill="#f1c40f"/><path d="M41.801 20.336h7.29c.216 0 .829.516 1.609 4.088.954 4.371 3.087 17.42 5.633 17.42h-7.495c-3.025-.351-5.427-21.507-7.037-21.508z" fill="#1abc9c"/><path d="M34.83 20.336h-7.29c-.216 0-.829.516-1.609 4.088-.954 4.371-3.087 17.42-5.632 17.42h7.495c3.025-.351 5.426-21.507 7.036-21.508z" fill="#29a7e8"/><path d="M20.298 41.844" fill="#99c"/><path d="M20.319 41.842l.059-.004-.034.005h.135l.034-.008.007-.001.068-.014.011-.002c2.6-.593 4.279-12.071 5.216-16.845-1.001 4.804-3.057 16.802-5.495 16.869zm.891-.444l.013-.012-.013.014v-.001z" fill="#ecf0f1"/><path d="M5.975 41.842l.059-.004-.034.005h.135l.034-.008.007-.001.068-.014.011-.002c2.6-.593 4.279-12.072 5.216-16.845-1.001 4.804-3.057 16.802-5.495 16.869zm.891-.444l.013-.012-.013.014v-.001z" fill="#ecf0f1"/></g></svg>